<?xml version="1.0" encoding="utf-8"?>
<!-- Generator: Adobe Illustrator 22.0.1, SVG Export Plug-In . SVG Version: 6.00 Build 0)  -->
<svg version="1.1" id="Layer_1" xmlns="http://www.w3.org/2000/svg" xmlns:xlink="http://www.w3.org/1999/xlink" x="0px" y="0px"
	 viewBox="0 0 1196.9 777" style="enable-background:new 0 0 1196.9 777;" xml:space="preserve">
<style type="text/css">
	.st0{clip-path:url(#SVGID_2_);}
</style>
<g id="SpiderWrapper">
	<g>
		<defs>
			<rect id="SVGID_1_" x="-43.6" y="1.6" width="1240" height="774.4"/>
		</defs>
		<clipPath id="SVGID_2_">
			<use xlink:href="#SVGID_1_"  style="overflow:visible;"/>
		</clipPath>
		<g class="st0">
			<polygon points="969.6,213.9 1029.4,158.2 1028.6,157.4 968.9,213.1 			"/>
			<polygon points="969.8,213.6 1022.2,1.8 1021.2,1.5 968.7,213.3 			"/>
			<polygon points="968.7,213.6 969.8,213.4 928.9,1.5 927.8,1.7 			"/>
			<polygon points="968.9,213.8 969.7,213.1 768.7,1.3 768,2 			"/>
			<polygon points="969.1,214 969.4,213 305.5,1.1 305.2,2.2 			"/>
			<polygon points="969.1,214 969.4,212.6 0.3,0 0,1.5 			"/>
			<polygon points="969.6,213.9 1196.7,68.7 1196.1,67.8 969,213 			"/>
			<polygon points="969.4,214 1196.5,158.3 1196.3,157.3 969.1,212.9 			"/>
			<polygon points="1196.1,336.3 1196.7,335.3 969.5,213 969,214 			"/>
			<polygon points="1196,477 1196.8,476.3 969.7,213.1 968.9,213.8 			"/>
			<polygon points="1195.9,644 1196.9,643.5 969.8,213.2 968.8,213.7 			"/>
			<polygon points="1135.1,777 970.2,213.3 968.7,213.7 1133.7,777 			"/>
			<polygon points="969.8,213.5 984,1.7 982.9,1.6 968.7,213.4 			"/>
			<polygon points="969,214 969.5,213 922.1,187.6 921.5,188.6 			"/>
			<path d="M921.6,188.6l0.5-1c-2.2-1-216.7-105.9-243.9-148.5l-5.4-37.6l-1.1,0.2l5.5,37.8l0.1,0.1
				C704.3,82.4,919.4,187.5,921.6,188.6L921.6,188.6z"/>
			<polygon points="677.6,39.8 677.9,38.8 548.5,1.1 548.2,2.2 			"/>
			<polygon points="1029.4,158.1 1096.6,45.5 1050.6,1.2 1049.8,2 1095.2,45.7 1028.5,157.5 			"/>
			<polygon points="1096.1,46.1 1196.6,8.1 1196.2,7.1 1095.7,45.1 			"/>
			<path d="M1124.4,255.6c0.6-0.5,57.3-48.3,72.5-82.3l-1-0.4c-15.1,33.7-71.6,81.4-72.2,81.9L1124.4,255.6L1124.4,255.6z"/>
			<path d="M1196.4,214l0.1-1.1c-9.3-0.5-11.9-19.3-11.9-19.5v-0.3l-0.2-0.1c-10.1-6.1-6.2-30.3-6.1-30.5l-1.1-0.2
				c-0.2,1-4,24.8,6.4,31.5C1183.8,196.2,1186.7,213.5,1196.4,214L1196.4,214z"/>
			<path d="M1195.4,227.1h1V226c-7.7,0.2-13.3-1.8-16.6-5.9c-5.4-6.6-3.2-16.4-3.2-16.5l0.1-0.4l-0.4-0.2
				c-0.3-0.1-27.5-14.1-17.8-35.6l0.3-0.7l-0.8-0.1c-0.4,0-38.6-4.1-36.7-50v-0.7l-0.7,0.1c-0.5,0.1-49.1,8.3-55.4-18.3L1065,97
				l-0.6,0.3c-0.5,0.2-48.4,22.3-64.9-2.8l-0.3-0.5l-0.5,0.3c-0.1,0.1-13.5,9.9-21.4,2.9l-0.3-0.3l-0.4,0.3
				c-0.2,0.1-17.8,14.2-28.8,3.1l-0.6-0.6l-0.3,0.7c-0.2,0.4-17.2,37.7-59.8,25.6l-1-0.3l0.4,1c0,0.1,4.6,12.8-0.9,22.7
				c-3.2,5.6-9,9.3-17.4,10.9l-0.8,0.2l0.4,0.7c0,0.1,4,6.4,2,11.5c-1.1,2.8-3.8,4.8-8.1,5.8l-0.9,0.2l0.6,0.7c0,0,3.4,3.8,2.5,6.5
				c-0.4,1.3-1.8,2.2-4.1,2.7l0.2,1.1c2.7-0.6,4.4-1.8,4.9-3.5c0.8-2.6-1.2-5.6-2.2-6.9c4.1-1.2,6.8-3.3,8-6.3
				c1.8-4.7-0.7-9.9-1.7-11.8c8.3-1.8,14.1-5.6,17.4-11.3c4.9-8.8,2.3-19.3,1.3-22.6c39.6,10.6,57.2-20.7,59.8-25.8
				c10.8,9.9,26.8-1.4,29.4-3.3c7.8,6.4,19.5-1.1,22-2.8c16.3,23.6,59.8,5.5,65.4,3c6.7,25.1,49.9,19.5,55.8,18.6
				c-1.4,42.8,31.6,49.6,37,50.4c-8.7,20.7,14.9,34.4,18.2,36.1c-0.4,2-1.7,10.8,3.5,17C1182.3,225,1187.9,227.1,1195.4,227.1
				L1195.4,227.1z"/>
			<path d="M1193.2,255.9c1.1,0,2.1-0.1,3.3-0.2l-0.1-1.1c-5.4,0.9-11-0.6-15.2-4.2c-12.5-10.4-13.9-35.9-13.9-36.2l-1.1,0.1
				c0.1,1.1,1.5,26.3,14.3,37C1184,254.3,1188.5,256,1193.2,255.9L1193.2,255.9z"/>
			<path d="M1146.7,261.8l0.4-1c-2.8-1.1-4.9-3.2-6-6c-2.6-6.7,1.4-15.4,1.5-15.5l-1-0.5c-0.2,0.4-4.2,9.3-1.5,16.4
				C1141.3,258.2,1143.7,260.6,1146.7,261.8z"/>
			<path d="M1170.5,268.2l0.3-1.1c-25-6.7-22-33.7-22-34l-1.1-0.1C1147.7,233.3,1144.5,261.2,1170.5,268.2L1170.5,268.2z"/>
			<path d="M1196.3,275.1l0.3-1.1c-39.4-10.6-41.8-46.5-41.8-46.9v-0.3l-0.2-0.2c-0.3-0.2-33.6-21.5-25-52.3l0.2-0.6l-0.6-0.1
				c-1.5-0.2-37.3-5.8-32.5-41.2l0.1-0.8l-0.8,0.2c-0.3,0.1-33.3,6.9-43.6-12.5l-0.2-0.4l-0.4,0.1c-0.4,0.1-36.6,11.7-55.6-12
				l-0.4-0.5l-0.4,0.5c-0.1,0.1-8.9,11-15,10.6c-1.6-0.1-3-1-3.7-2.4l-0.4-0.6l-0.5,0.6c-0.1,0.1-12.3,14.1-23.6,5.7l-0.7-0.5
				l-0.2,0.8c0,0.1-2.8,12.9-14.3,20.1c-8.4,5.2-19.3,6.2-32.3,2.9l-0.9-0.2l0.3,0.9c0,0.1,3.9,13.9-1.9,21.5c-2.5,3.3-6.6,5-12,5
				h-0.8l0.2,0.7c0,0.1,1.3,5.2-1.4,8.7c-1.7,2.2-4.7,3.3-8.9,3.2v1.1c4.5,0.1,7.8-1.2,9.7-3.6c2.5-3.1,2-7.3,1.7-9
				c5.5-0.1,9.6-2,12.3-5.5c5.3-7,3.1-18.3,2.3-21.5c13,3.1,23.8,2,32.3-3.2c10.2-6.4,13.8-17,14.6-20c10.6,7.2,21.6-3.3,24-5.8
				c0.9,1.4,2.5,2.3,4.2,2.4c5.9,0.4,13.6-8.2,15.5-10.5c18.5,22.1,51.8,13.2,56,11.9c10,18,38.8,13.7,43.8,12.8
				c-4,33.3,28.1,40.7,33,41.6c-7.8,29.9,22.4,50.8,25.4,52.8c0.3,3.1,3.5,30.1,31,43.4l-215.7-58.1l-10.1,16.8l0.9,0.6l9.7-16.1
				L1196.3,275.1z"/>
			<path d="M1124,255.7l0.2-1.1c-16.1-3.6-27.9-11.3-35.2-22.8c-12.7-20.2-7.1-45.5-7-45.7l0.2-0.7h-0.7c-9.4,0.1-16-2.4-19.7-7.5
				c-6.3-8.6-2.1-21.7-2-21.8l-1-0.3c-0.2,0.6-4.4,13.8,2.2,22.8c3.8,5.2,10.5,7.9,19.9,7.9c-0.8,4.2-4.5,27.2,7.3,45.9
				C1095.6,244.2,1107.6,252,1124,255.7L1124,255.7z"/>
			<path d="M1110.1,38.5c2.6,0,5.2-0.2,7.8-0.6l-0.2-1.1c-19.8,3.1-37.7-7.3-37.9-7.4l-0.6,0.9C1079.4,30.4,1093.3,38.5,1110.1,38.5
				L1110.1,38.5z"/>
			<path d="M1182.9,77.4l0.1-1.1c-34.7-3.3-32.5-50.6-32.4-51.1v-0.7l-0.7,0.1c-0.6,0.1-58.9,9-79.3-4.1l-0.6,0.9
				c19.8,12.7,72.6,5.4,79.4,4.4C1149.3,31.7,1149.4,74.2,1182.9,77.4z"/>
			<path d="M1121.7,19.8c25.4,0,50.7-3.9,74.9-11.6l-0.3-1c-74.8,24-135.7,3.4-136.3,3.2l-0.4,1
				C1059.9,11.5,1084.6,19.8,1121.7,19.8L1121.7,19.8z"/>
			<path d="M1160.2,87.3c2.7,0,5.4-0.2,8.1-0.5l-0.1-1.1c-48.9,5.9-61.9-43.4-62.1-43.9l-1.1,0.3C1105.2,42.5,1117,87.3,1160.2,87.3
				z"/>
			<path d="M659.9,34.4c11.2,0,15.9-11.3,16-11.5l-1-0.4c0,0.1-4.7,11.3-15.7,10.8l-0.1,1.1H659.9z"/>
			<path d="M641.4,27.6c23.7,0,32.5-17.2,32.6-17.4l-1-0.5c-0.1,0.2-10.4,20.3-39,16.2l-0.2,1.1C636.3,27.4,638.9,27.6,641.4,27.6
				L641.4,27.6z"/>
			<path d="M615.6,18c29.9,0,56.9-12.8,57.3-13l-0.5-1c-0.4,0.2-43.4,20.5-80.5,9.7l-0.3,1C599.4,17,607.5,18.1,615.6,18z"/>
			<path d="M776,111.2c0.3,0,34-1.3,48.5-18.9c5.5-6.7,7.6-15,6.3-24.6c13.9,5.1,28.2,8.7,42.9,10.6c31,3.6,53.6-3.7,65.5-21.1
				c3.3-0.5,38.2-6.1,43.4-36.1l-1.1-0.2c-5.4,30.5-42.4,35.1-42.7,35.2h-0.3l-0.1,0.2c-27.9,41.8-107.3,10.3-108.1,10l-0.9-0.4
				l0.2,1c1.6,9.7-0.4,18-5.9,24.7c-14.2,17.3-47.4,18.5-47.7,18.5C776,110.1,776,111.2,776,111.2z"/>
			<path d="M1193,159.1l0.2-1.1c-36.3-6.7-44.5-58.5-44.6-59l-0.1-0.6l-0.6,0.1c-47.3,12.1-67.8-26.9-68-27.3l-0.2-0.4l-0.4,0.1
				c-41.8,8.2-67.9-25.4-68.2-25.7l-0.4-0.5l-0.4,0.5c-16.1,18.5-29.4,7.4-30,6.9l-0.3-0.3l-0.4,0.3c-0.2,0.2-21.2,16.5-38.8,5.1
				c7.3,0.4,32.3,0.4,40.4-15.1l-1-0.5c-9,17.2-41,14.4-41.3,14.4l-1.9-0.2l1.5,1.2c17.3,13,38.5-1.6,41.4-3.8
				c2.3,1.7,15.5,10.2,30.7-6.8c3.5,4.3,29.1,33.2,68.4,25.7c1.9,3.4,17.8,29.9,51.1,29.9c5.8,0,11.6-0.8,17.3-2.2
				C1148.7,105.6,1158.1,152.7,1193,159.1L1193,159.1z"/>
			<path d="M755.8,69.4c7.3,0,14.5-0.9,21.5-2.9c20.1-5.8,31.2-18.2,32.9-20.3c5.7,1.7,76.9,22.3,109,3.7c8-4.6,13.1-11.4,15-20
				l-1.1-0.2c-1.9,8.3-6.8,14.8-14.5,19.3c-32.9,19-107.8-3.7-108.5-3.9l-0.4-0.1l-0.2,0.3c-0.1,0.1-11.1,14.1-32.6,20.2
				c-19.9,5.7-53.3,5.7-98.9-26.6l-0.6,0.9C709.8,62.6,736.1,69.4,755.8,69.4L755.8,69.4z"/>
			<path d="M978.5,246.9l1-0.4c-2.2-6-12-10.8-14.2-11.8l4.6-21.8l-30.3-0.2v1.1l28.9,0.2l-4.5,21.4l0.4,0.2
				C964.6,235.6,976.2,240.8,978.5,246.9z"/>
			<path d="M981,255.6l1-0.3c-0.8-2.9-15.3-18.7-17-20.5l-34.8-30.4l-0.7,0.8l34.7,30.3C970.7,242.5,980.4,253.6,981,255.6
				L981,255.6z"/>
			<path d="M972.3,225.6l1-0.3c-0.9-3.1-4-3.6-5.7-3.4c-0.8-0.8-2-1-3.1-0.6c-1.7-3.9-9.9-7.5-12.1-8.4c0.6-1.3,0.4-2.9-0.6-3.9
				l-0.7,0.8c1.3,1.1,0.2,3,0.1,3l-0.3,0.6l0.6,0.2c0.1,0,11,4.2,12.2,8.4l0.2,0.6l0.6-0.2c0,0,1.8-0.7,2.6,0.3l0.2,0.3l0.3-0.1
				C967.6,223,971.3,222.5,972.3,225.6L972.3,225.6z"/>
			<path d="M936.3,175.5c14.8,0,20.7-14.4,22.1-18.4c5.5,5.8,22.6-2.8,25.9-4.6c1.3,2.9,3.6,5.1,6.5,6.3c13.5,5.9,39.9-4.5,41.1-4.9
				l-0.4-1c-0.3,0.1-27.1,10.7-40.2,4.9c-2.8-1.1-5-3.4-6.1-6.2L985,151l-0.6,0.3c-0.2,0.1-21.3,11.6-25.7,4.4l-0.7-1.1l-0.3,1.2
				c-0.2,0.9-5.9,21.3-25.1,18.3l-0.2,1.1C933.7,175.4,935,175.5,936.3,175.5L936.3,175.5z"/>
			<path d="M876.6,165.8c0.2,0,23.4-4.3,22.5-26.2c5.2,1,37.9,6,51.3-24c2.9,1.2,16.9,5.9,26.3-7.7l-0.9-0.6
				c-10,14.4-25.3,7.2-25.5,7.1l-0.5-0.2l-0.2,0.5c-14,32.3-50.6,23.8-51,23.8l-0.7-0.2v0.7c1.3,21.5-20.7,25.6-21.6,25.8
				L876.6,165.8L876.6,165.8z"/>
			<path d="M923.4,199.3c1.2-0.3,2.2-1.2,2.7-2.3c1-2.1,0.5-4.8,0.1-6.2c3.7,0.6,6.8,0,9.1-1.8c2.1-1.7,3.6-4.1,4-6.8
				c4.7,1,8.7,0.3,12.1-2c7.2-4.9,8.7-15.4,8.7-15.9l-1.1-0.1c0,0.1-1.5,10.5-8.3,15.1c-3.3,2.2-7.2,2.8-11.8,1.7l-0.6-0.1l0.1,0.6
				c-0.3,2.6-1.7,5-3.7,6.6c-2.2,1.7-5.3,2.2-9.1,1.4l-0.9-0.2l0.3,0.9c0,0,1.3,3.8,0.2,6.2c-0.4,0.9-1.2,1.6-2.1,1.8L923.4,199.3z"
				/>
			<path d="M1014.7,266.8l1-0.4c-1.5-4.2-1.3-7.9,0.4-11.2c3.6-6.7,12.9-9.1,13-9.1l1.1-0.3l-0.9-0.7c-5.1-3.7-7.7-7.4-7.9-11
				c-0.1-2.2,0.7-4.3,2.2-5.8l0.5-0.5l-0.6-0.4c-0.1-0.1-7.5-5.4-8.8-13.3c-0.7-4.2,0.5-8.3,3.5-12.4l-0.9-0.6
				c-3.2,4.3-4.4,8.7-3.7,13.2c1.2,7.2,7,12.2,8.7,13.6c-1.5,1.7-2.2,3.9-2.1,6.2c0.2,3.7,2.7,7.5,7.5,11.1
				c-2.7,0.9-9.5,3.6-12.6,9.4C1013.3,258.4,1013.1,262.9,1014.7,266.8L1014.7,266.8z"/>
			<path d="M1032.9,288l1-0.4c-7.4-20.6,14.6-30.9,14.8-31l-0.5-1C1048.1,255.8,1025.2,266.4,1032.9,288z"/>
			<path d="M1049,256.9l1-0.4c-4.5-11.4,8.3-18.2,8.9-18.5l-0.5-1C1058.3,237.1,1044.2,244.5,1049,256.9z"/>
			<path d="M1053.3,236.6l0.7-0.8c-0.1-0.1-11.9-10.1-12.5-22.8c-0.3-6.6,2.4-12.9,8.1-18.7l-0.8-0.8c-5.9,6-8.8,12.5-8.4,19.5
				C1041,226.2,1052.8,236.2,1053.3,236.6L1053.3,236.6z"/>
			<path d="M1062.9,239.1l0.8-0.7c-21.9-25.9-4.8-46.3-4.6-46.5l0.6-0.7l-1-0.2c-6.1-0.9-10.5-3.5-13.1-7.5
				c-4.7-7.2-2.1-16.9-2.1-17l-1.1-0.3c-0.1,0.4-2.7,10.3,2.2,17.9c2.7,4.1,7,6.8,13,7.9C1054.8,195.9,1042.8,215.4,1062.9,239.1
				L1062.9,239.1z"/>
			<path d="M1013.8,298.9l0.7-0.9c-0.6-0.5-15.5-11.9-22.1-4.5l0.8,0.7C999.1,287.6,1013.7,298.8,1013.8,298.9L1013.8,298.9z"/>
			<path d="M1112,378.9c0.5-0.4,48.5-36.4,77.3-46.5l-0.4-1c-28.9,10.2-77.1,46.3-77.6,46.7L1112,378.9z"/>
			<path d="M1076.1,336.6c0-0.3,0.4-28.4,29.8-49.3l0.3-0.2l-0.1-0.3c0-0.2-4.3-25,5.9-34.6l-0.8-0.8c-10,9.5-6.8,32.1-6.3,35.2
				c-29.6,21.3-30,49.7-30,50H1076.1z"/>
			<path d="M996.1,153.3c13.7,0,36.6-3.9,52.2-26.8l-0.9-0.6c-23.1,33.8-62.3,25.4-62.7,25.3l-0.2,1.1
				C988.3,153,992.2,153.3,996.1,153.3z"/>
			<path d="M909.4,194.8c4.2-1.5,3.3-8.7,2.9-11.1c9.9,0.8,16.5-8.7,17.9-10.9c10.3,5,25.1-16.9,27.3-20.3c1.4,0.6,2.9,0.7,4.4,0.3
				c5.7-1.6,11-10,12.4-12.3c5.1,4.6,13.2-0.2,13.5-0.4l-0.6-0.9c-0.1,0-8.2,4.9-12.7,0.1l-0.5-0.6l-0.4,0.7
				c-0.1,0.1-6,10.7-12.1,12.4c-1.4,0.4-2.8,0.3-4.1-0.4l-0.5-0.3l-0.3,0.4c-0.2,0.3-16.6,25.9-26.6,20.2l-0.5-0.3l-0.3,0.5
				c-0.1,0.1-6.9,12.2-17.8,10.8l-0.8-0.1l0.2,0.8c0,0.1,2,9.2-2.1,10.6L909.4,194.8L909.4,194.8z"/>
			<path d="M973.8,230.9l1.1-0.2l-0.5,0.1l0.5-0.1c0,0-0.1-0.7,0.3-1s1.2-0.1,2.4,0.4l0.6,0.3l0.1-0.7c0.2-0.7,0.6-1.3,1.2-1.7
				c0.6-0.2,1.3-0.2,1.8,0.2l1.1,0.5l-0.3-1.1c0,0-0.6-2.5,0.5-4c0.7-0.7,1.6-1.1,2.6-1h0.8l-0.2-0.7c-0.2-0.7-0.6-2.4-0.1-3
				c0.2-0.2,0.6-0.2,1.2-0.1l0.4-1c-1.2-0.6-4.3-2.5-4.4-4.5c0-1.1,0.8-2.1,2.4-3.1l1-0.6l-1.1-0.4c0,0-1.8-0.6-2.2-1.9
				c-0.2-0.7,0.1-1.5,1-2.5l1.3-1.5l-1.9,0.6c-0.7,0.2-1.6,0.3-1.9,0c-0.1-0.1-0.1-0.6,0.3-1.4l0.8-1.6l-1.6,0.9
				c0,0-3.7,2.1-6.2,1.1c-1-0.3-1.7-1.1-1.9-2.1l-0.3-1l-0.6,0.8c-0.2,0.3-0.6,0.7-0.9,0.6c-0.1,0-0.3-0.2-0.4-0.5l-0.4-1l-0.5,1
				c-0.2,0.3-0.8,1.1-1.4,1.2c-0.1,0-0.4,0-0.8-0.5l-0.7-0.8l-0.3,1c0,0-0.8,2.7-2.4,3.4c-0.8,0.3-1.6,0.2-2.3-0.3l-1-0.6l0.2,1.1
				c0.1,0.4-0.1,0.9-0.3,1.2c-0.5,0.5-1.2,0.7-1.9,0.7h-1.1l0.7,0.8l0,0c0.1,0.1,0.1,0.1,0,0.2c0,0,0,0,0,0c0,0.1-0.2,0.4-1.2,0.7
				l0.3,1.1c1.1-0.3,1.8-0.8,2-1.4c0.1-0.1,0.1-0.3,0.1-0.4c0.8-0.1,1.5-0.5,2-1.1c0.2-0.3,0.4-0.7,0.5-1.1c0.8,0.3,1.6,0.3,2.4,0
				c1.3-0.7,2.4-1.9,2.8-3.4c0.3,0.2,0.7,0.3,1.1,0.3c0.7-0.1,1.3-0.5,1.7-1c0.2,0.2,0.5,0.4,0.8,0.4c0.5,0,0.9-0.1,1.3-0.4
				c0.5,0.9,1.3,1.6,2.2,2c2,0.7,4.4,0,5.9-0.6c-0.2,0.8,0.3,1.6,1.1,1.8c0.2,0.1,0.5,0.1,0.8,0c-0.5,0.7-0.6,1.5-0.4,2.3
				c0.3,1,1,1.7,1.9,2.2c-1.5,1.1-2.2,2.2-2.1,3.5c0.1,2,2,3.6,3.5,4.6l-0.3,0.3c-0.8,0.9-0.6,2.5-0.4,3.4c-1.1,0.1-2.1,0.6-2.8,1.4
				c-0.8,1.1-1.1,2.5-0.8,3.9c-0.6-0.2-1.3-0.1-1.9,0.2c-0.7,0.4-1.2,1-1.5,1.8c-1.3-0.5-2.3-0.5-2.9,0
				C974,229.2,973.7,230.1,973.8,230.9L973.8,230.9z"/>
			<path d="M974.5,220.2l1.1-0.1l-0.5,0.1l0.5-0.1c-0.1-0.5,0.1-0.9,0.4-1.3c0.3-0.3,0.7-0.5,1.2-0.5h0.7l-0.3-0.7
				c-0.1-0.3-0.1-0.5,0-0.8c0.1-0.2,0.5-0.3,0.7-0.3h1.2l-0.9-0.9c-0.4-0.4-1.6-1.9-1.4-2.9c0.1-0.3,0.4-0.6,0.7-0.7l0.9-0.4
				l-0.9-0.5c-0.4-0.2-1.1-0.8-1.1-1.3c0.1-0.3,0.2-0.6,0.5-0.7l-0.6-0.9c-0.6,0.3-1,0.9-1,1.6c0.1,0.7,0.4,1.4,1,1.8
				c-0.3,0.3-0.5,0.7-0.6,1.1c-0.1,1.1,0.3,2.3,1.1,3.1c-0.3,0.1-0.5,0.3-0.6,0.5c-0.2,0.3-0.3,0.7-0.3,1.1c-0.5,0.1-1,0.4-1.4,0.8
				C974.5,218.8,974.3,219.5,974.5,220.2L974.5,220.2z"/>
			<path d="M976.6,236.8c0.1-0.7,0.5-1.2,1.1-1.6c0.8-0.3,1.7-0.4,2.5-0.1l0.7,0.2v-0.7c0-0.8,0.3-1.5,0.9-2c1-0.5,2.2-0.5,3.2-0.1
				l1,0.3l-0.2-1c-0.4-1.3-0.2-2.7,0.5-3.9c1.5-2,4.8-2.2,4.8-2.2h1.1l-0.7-0.8c-0.8-1-1.1-1.9-0.8-2.6c0.5-1.3,2.5-1.8,2.5-1.8
				l1.1-0.3l-0.8-0.7c-2.6-2.1-3.8-4.2-3.6-6.3c0.2-3.1,3.5-5.1,3.6-5.1l1.2-0.7l-1.4-0.3c-1.4-0.1-2.6-0.8-3.3-2
				c-0.9-1.9,0.6-4.6,0.6-4.6l0.7-1.2l-1.3,0.4c-0.6,0.2-2.4,0.6-3,0c-0.4-0.4-0.2-1.3,0.1-2l0.3-0.9l-1,0.2c0,0-4.8,1-8-1.2
				c-1.7-1.3-2.8-3.3-2.8-5.4l-0.1-1.2l-0.8,0.9c-0.5,0.7-1.3,1.1-2.1,1.1c-0.5-0.2-0.9-0.5-1.1-1l-0.4-0.8l-0.5,0.7
				c0,0-1.7,2.1-3.3,2.1c-0.6,0-1.2-0.3-1.6-0.8l-0.7-0.8l-0.2,1.1c-0.1,0.3-1.8,7.8-8.9,6.9l-0.8-0.1l0.2,0.8
				c0.3,1,0.1,2.2-0.4,3.1c-0.7,0.9-1.7,1.3-2.8,1.3l-0.6,0.1l0.2,0.6c0.1,0.6,0,1.1-0.3,1.6c-0.4,0.5-1.1,0.6-2.2,0.6l-1.8-0.1
				l1.4,1.1c0.3,0.2,0.6,0.5,0.7,0.9l0,0c-0.1,0.1-0.3,0.2-0.5,0.2l0.2,1.1c0.7-0.2,1.2-0.5,1.3-1c0.1-0.3,0-0.7-0.2-1
				c0.7-0.1,1.4-0.4,1.9-0.9c0.4-0.5,0.6-1.2,0.6-1.9c1.2-0.1,2.3-0.7,3.1-1.7c0.6-1,0.9-2.2,0.7-3.3c6,0.3,8.4-4.8,9.1-6.9
				c0.5,0.4,1.1,0.5,1.7,0.5c1.5,0,2.9-1.2,3.7-2c0.4,0.5,0.9,0.9,1.6,1c0.8,0.1,1.7-0.2,2.3-0.8c0.4,2,1.5,3.8,3.1,5.1
				c2.7,1.9,6.3,1.8,8,1.6c-0.3,0.8-0.1,1.6,0.4,2.2c0.7,0.8,2,0.7,3,0.6c-0.6,1.5-0.7,3.1-0.2,4.6c0.6,1.2,1.6,2,2.9,2.3
				c-1.7,1.3-2.8,3.1-3.1,5.2c-0.2,2.2,0.9,4.4,3.3,6.6c-1,0.4-1.9,1.2-2.4,2.2c-0.3,1-0.1,2.1,0.5,2.9c-1.8,0.2-3.5,1.1-4.7,2.5
				c-0.8,1.1-1.1,2.5-0.9,3.9c-1.1-0.3-2.3-0.2-3.3,0.4c-0.7,0.5-1.2,1.3-1.3,2.2c-0.9-0.2-1.9-0.1-2.7,0.3
				c-0.9,0.5-1.5,1.3-1.7,2.3L976.6,236.8L976.6,236.8z"/>
			<path d="M979.7,247.3c0.3-1.8,0.9-2.8,1.9-3.1c1.5-0.5,3.6,1.1,4.3,1.8l1.2,1.2l-0.3-1.7c-0.5-2.7-0.2-4.6,0.8-5.3
				c1.3-0.9,3.6-0.1,4.4,0.3l1.1,0.6l-0.4-1.2c-0.8-2.5-0.6-4.5,0.6-6c2.3-2.9,7.6-2.8,7.6-2.8h0.9l-0.4-0.8
				c-1.1-2.1-1.3-3.7-0.7-4.9c1-1.7,3.6-1.9,3.7-1.9l1.4-0.1l-1.1-0.9c-3.5-2.8-5.2-5.8-5.2-8.8c0.1-4.8,4.8-8.2,4.8-8.3l1-0.7
				l-1.1-0.3c-2.4-0.6-4-1.7-4.5-3.3c-1.2-3.3,2.2-7.9,2.2-7.9l1.1-1.4l-1.7,0.6c-2.8,0.9-4.8,1-5.8,0.2c-0.6-0.5-0.9-1.3-0.8-2.1
				l0.1-0.8l-0.8,0.2c-3.7,1.1-6.9,0.9-9.6-0.7c-4.7-2.7-6.4-8.4-6.4-8.5l-0.3-0.9l-0.7,0.7c-1,1.1-2,1.5-2.8,1.3
				c-1.3-0.3-2.1-2.1-2.1-2.1l-0.4-1l-0.6,1c-0.9,1.5-1.9,2.4-3.2,2.5c-2.3,0.3-4.6-2.1-4.6-2.1l-0.7-0.8l-0.2,1.1
				c-0.6,3.1-2,5.2-4.2,6.4c-5.5,2.9-14-0.6-14.1-0.6l-1.1-0.5l0.4,1.1c0.6,1.9,0.5,3.5-0.4,4.7c-2.1,3-7.9,3.1-8,3.1h-1l0.6,0.8
				c0.9,1.3,1.1,2.4,0.7,3.2c-0.7,1.5-3.4,2-4.4,2.1l-1.3,0.1l1,0.9c0.7,0.6,1.1,1.2,1,1.5c-0.2,0.6-1.4,0.9-2,1l0.1,1.1
				c0.3,0,2.5-0.4,2.9-1.8c0.2-0.7,0-1.4-0.5-1.9c1.3-0.3,3.4-0.9,4.2-2.5c0.5-1.1,0.4-2.5-0.3-3.5c1.9-0.2,6-0.8,7.9-3.5
				c0.9-1.3,1.2-3,0.8-4.6c2.5,0.9,9.2,2.8,14,0.2c2.4-1.3,4-3.6,4.6-6.2c1.3,1.2,3,1.8,4.8,1.8c1.4-0.2,2.7-1,3.5-2.2
				c0.6,0.9,1.4,1.6,2.5,1.9c1.1,0.1,2.3-0.3,3.1-1.1c0.7,1.8,2.5,6,6.6,8.3c3,1.6,6.5,2,9.8,1c0.1,0.9,0.5,1.7,1.2,2.3
				c1.2,0.9,3,1.1,5.4,0.5c-1,1.7-2.5,4.9-1.5,7.7c0.6,1.7,2,2.9,4.3,3.7c-1.5,1.3-4.3,4.4-4.4,8.4c-0.1,3.1,1.5,6.1,4.7,8.9
				c-1.4,0.3-2.6,1.1-3.3,2.3c-0.8,1.3-0.7,3.1,0.3,5.1c-1.8,0.1-5.6,0.6-7.7,3.2c-1.2,1.5-1.5,3.5-1,5.9c-1.2-0.4-3.1-0.8-4.5,0.2
				c-1.2,0.9-1.6,2.5-1.4,5c-1.2-1-2.8-1.4-4.3-1.2c-1.3,0.4-2.2,1.8-2.6,4L979.7,247.3L979.7,247.3z"/>
			<path d="M1025.4,279.3l1-0.4c-3.4-9.1-3.5-16-0.1-20.5c4.6-6.3,14.3-5.9,14.4-5.9l1.2,0.1l-0.7-0.9c-3-3.9-4-7.1-2.9-9.7
				c2.2-5.1,11.9-6.1,12-6.1l1.8-0.2l-1.6-0.8c-8.7-4.5-13.5-10-14.5-16.6c-1.7-11.8,9.9-22.9,10-23l0.8-0.8l-1.1-0.2
				c-5.2-0.9-8.7-3-10.3-6.4c-3.4-7.2,2.6-17.6,2.6-17.8l0.5-0.9l-1,0.1c-4.2,0.4-7-0.4-8.4-2.4c-2.3-3.3,0.3-8.8,0.3-8.8l0.8-1.8
				l-1.6,1.1c-14.6,9.6-27,13.3-35.8,10.5c-4.3-1.3-7.9-4.3-9.8-8.4l-1,0.4c2,4.4,5.8,7.7,10.5,9.1c9,2.9,20.8-0.4,35.3-9.7
				c-0.7,2.1-1.4,5.7,0.4,8.3c1.5,2.1,4.3,3.1,8.4,2.9c-1.4,2.8-5.3,11.4-2.2,17.9c1.6,3.5,5,5.8,10,6.8
				c-2.6,2.7-11.1,12.5-9.6,23.2c0.9,6.5,5.5,12.1,13.6,16.6c-3,0.5-9.3,2.2-11.2,6.6c-1.2,2.8-0.4,6.1,2.4,9.9
				c-2.8,0.1-10.2,0.8-14.2,6.3C1021.9,262.6,1021.8,269.8,1025.4,279.3L1025.4,279.3z"/>
			<path d="M1048.5,482.6c5.2-20.1,50.8-21.3,51.3-21.3l0.2-0.1c0.4-0.2,43-20.7,70.5-13.9l0.3-1.1c-27.1-6.7-68.7,12.8-71.1,13.9
				c-3.2,0.1-46.9,1.6-52.2,22.1L1048.5,482.6L1048.5,482.6z"/>
			<path d="M1170.1,446.9l1-0.3c-9.6-33,25.4-109.8,25.7-110.6l-1-0.5C1195.5,336.3,1160.4,413.5,1170.1,446.9z"/>
			<path d="M1158.9,316l1-0.4c-8.1-18.3,13.4-46.7,13.6-46.9l-0.9-0.7C1171.7,269.2,1150.5,297.1,1158.9,316z"/>
			<path d="M1149.9,311.3l0.3-1l-0.2,0.5l0.2-0.5c-0.1,0-1.7-0.6-2.7-3.3c-1.6-4.3-2.2-15.4,12.3-42.1l-1-0.5
				c-14,25.8-14.4,37.7-12.3,43.1C1147.8,310.6,1149.8,311.3,1149.9,311.3L1149.9,311.3z"/>
			<path d="M1082.3,244.3l1-0.5c-3.4-7.3,1.4-20.1,1.4-20.2l-1-0.4C1083.5,223.7,1078.7,236.5,1082.3,244.3L1082.3,244.3z"/>
			<path d="M1072.4,241.5l1.1-0.1c-1.3-9.7,9.6-21.3,9.8-21.5l-0.8-0.8C1082,219.6,1071,231.3,1072.4,241.5L1072.4,241.5z"/>
			<path d="M1094.1,247.6l0.6-0.9c-7.7-5.1-6.6-16.1-6.6-16.2l-1.1-0.1C1087,230.9,1085.8,242.1,1094.1,247.6z"/>
			<path d="M1112.3,178.5c0.7,0,1.3,0,2-0.1l-0.1-1.1c-7,0.4-13.1-1.5-17.9-5.8c-11.6-10.2-12.8-30.5-12.9-30.7V140l-0.7,0.3
				c-18.4,7.9-33.8-15-34-15.2l-0.9,0.6c0.2,0.2,15.7,23.3,34.6,15.9c0.4,3.8,2.6,21.3,13.2,30.7
				C1100.2,176.4,1106.1,178.7,1112.3,178.5L1112.3,178.5z"/>
		</g>
	</g>
	<g>
		<defs>
			<rect id="SVGID_3_" x="-43.6" y="1.6" width="1240" height="774.4"/>
		</defs>
		<clipPath id="SVGID_4_">
			<use xlink:href="#SVGID_3_"  style="overflow:visible;"/>
		</clipPath>
	</g>
</g>
</svg>
