<svg id="Layer_1" data-name="Layer 1" xmlns="http://www.w3.org/2000/svg" xmlns:xlink="http://www.w3.org/1999/xlink" viewBox="0 0 1196.9 777"><defs><style>.cls-1{fill:none;}.cls-2{opacity:0.5;}.cls-3{clip-path:url(#clip-path);}</style><clipPath id="clip-path" transform="translate(-61.93)"><rect class="cls-1" x="18.33" y="1.6" width="1240" height="774.4"/></clipPath></defs><title>spider-web-alpha</title><g id="SpiderWrapper" class="cls-2"><g class="cls-3"><polygon points="969.6 213.9 1029.4 158.2 1028.6 157.4 968.9 213.1 969.6 213.9"/><polygon points="969.8 213.6 1022.2 1.8 1021.2 1.5 968.7 213.3 969.8 213.6"/><polygon points="968.7 213.6 969.8 213.4 928.9 1.5 927.8 1.7 968.7 213.6"/><polygon points="968.9 213.8 969.7 213.1 768.7 1.3 768 2 968.9 213.8"/><polygon points="969.1 214 969.4 213 305.5 1.1 305.2 2.2 969.1 214"/><polygon points="969.1 214 969.4 212.6 0.3 0 0 1.5 969.1 214"/><polygon points="969.6 213.9 1196.7 68.7 1196.1 67.8 969 213 969.6 213.9"/><polygon points="969.4 214 1196.5 158.3 1196.3 157.3 969.1 212.9 969.4 214"/><polygon points="1196.1 336.3 1196.7 335.3 969.5 213 969 214 1196.1 336.3"/><polygon points="1196 477 1196.8 476.3 969.7 213.1 968.9 213.8 1196 477"/><polygon points="1195.9 644 1196.9 643.5 969.8 213.2 968.8 213.7 1195.9 644"/><polygon points="1135.1 777 970.2 213.3 968.7 213.7 1133.7 777 1135.1 777"/><polygon points="969.8 213.5 984 1.7 982.9 1.6 968.7 213.4 969.8 213.5"/><polygon points="969 214 969.5 213 922.1 187.6 921.5 188.6 969 214"/><path d="M983.53,188.6l.5-1c-2.2-1-216.7-105.9-243.9-148.5l-5.4-37.6-1.1.2,5.5,37.8.1.1c27,42.8,242.1,147.9,244.3,149Z" transform="translate(-61.93)"/><polygon points="677.6 39.8 677.9 38.8 548.5 1.1 548.2 2.2 677.6 39.8"/><polygon points="1029.4 158.1 1096.6 45.5 1050.6 1.2 1049.8 2 1095.2 45.7 1028.5 157.5 1029.4 158.1"/><polygon points="1096.1 46.1 1196.6 8.1 1196.2 7.1 1095.7 45.1 1096.1 46.1"/><path d="M1186.33,255.6c.6-.5,57.3-48.3,72.5-82.3l-1-.4c-15.1,33.7-71.6,81.4-72.2,81.9l.7.8Z" transform="translate(-61.93)"/><path d="M1258.33,214l.1-1.1c-9.3-.5-11.9-19.3-11.9-19.5v-.3l-.2-.1c-10.1-6.1-6.2-30.3-6.1-30.5l-1.1-.2c-.2,1-4,24.8,6.4,31.5.2,2.4,3.1,19.7,12.8,20.2Z" transform="translate(-61.93)"/><path d="M1257.33,227.1h1V226c-7.7.2-13.3-1.8-16.6-5.9-5.4-6.6-3.2-16.4-3.2-16.5l.1-.4-.4-.2c-.3-.1-27.5-14.1-17.8-35.6l.3-.7-.8-.1c-.4,0-38.6-4.1-36.7-50v-.7l-.7.1c-.5.1-49.1,8.3-55.4-18.3l-.2-.7-.6.3c-.5.2-48.4,22.3-64.9-2.8l-.3-.5-.5.3c-.1.1-13.5,9.9-21.4,2.9l-.3-.3-.4.3c-.2.1-17.8,14.2-28.8,3.1l-.6-.6-.3.7c-.2.4-17.2,37.7-59.8,25.6l-1-.3.4,1c0,.1,4.6,12.8-.9,22.7-3.2,5.6-9,9.3-17.4,10.9l-.8.2.4.7c0,.1,4,6.4,2,11.5-1.1,2.8-3.8,4.8-8.1,5.8l-.9.2.6.7s3.4,3.8,2.5,6.5c-.4,1.3-1.8,2.2-4.1,2.7l.2,1.1c2.7-.6,4.4-1.8,4.9-3.5.8-2.6-1.2-5.6-2.2-6.9,4.1-1.2,6.8-3.3,8-6.3,1.8-4.7-.7-9.9-1.7-11.8,8.3-1.8,14.1-5.6,17.4-11.3,4.9-8.8,2.3-19.3,1.3-22.6,39.6,10.6,57.2-20.7,59.8-25.8,10.8,9.9,26.8-1.4,29.4-3.3,7.8,6.4,19.5-1.1,22-2.8,16.3,23.6,59.8,5.5,65.4,3,6.7,25.1,49.9,19.5,55.8,18.6-1.4,42.8,31.6,49.6,37,50.4-8.7,20.7,14.9,34.4,18.2,36.1-.4,2-1.7,10.8,3.5,17,3.5,4.5,9.1,6.6,16.6,6.6Z" transform="translate(-61.93)"/><path d="M1255.13,255.9c1.1,0,2.1-.1,3.3-.2l-.1-1.1a18.67,18.67,0,0,1-15.2-4.2c-12.5-10.4-13.9-35.9-13.9-36.2l-1.1.1c.1,1.1,1.5,26.3,14.3,37a18.92,18.92,0,0,0,12.7,4.6Z" transform="translate(-61.93)"/><path d="M1208.63,261.8l.4-1a10.43,10.43,0,0,1-6-6c-2.6-6.7,1.4-15.4,1.5-15.5l-1-.5c-.2.4-4.2,9.3-1.5,16.4A11.89,11.89,0,0,0,1208.63,261.8Z" transform="translate(-61.93)"/><path d="M1232.43,268.2l.3-1.1c-25-6.7-22-33.7-22-34l-1.1-.1c0,.3-3.2,28.2,22.8,35.2Z" transform="translate(-61.93)"/><path d="M1258.23,275.1l.3-1.1c-39.4-10.6-41.8-46.5-41.8-46.9v-.3l-.2-.2c-.3-.2-33.6-21.5-25-52.3l.2-.6-.6-.1c-1.5-.2-37.3-5.8-32.5-41.2l.1-.8-.8.2c-.3.1-33.3,6.9-43.6-12.5l-.2-.4-.4.1c-.4.1-36.6,11.7-55.6-12l-.4-.5-.4.5c-.1.1-8.9,11-15,10.6a4.4,4.4,0,0,1-3.7-2.4l-.4-.6-.5.6c-.1.1-12.3,14.1-23.6,5.7l-.7-.5-.2.8c0,.1-2.8,12.9-14.3,20.1-8.4,5.2-19.3,6.2-32.3,2.9l-.9-.2.3.9c0,.1,3.9,13.9-1.9,21.5-2.5,3.3-6.6,5-12,5h-.8l.2.7c0,.1,1.3,5.2-1.4,8.7-1.7,2.2-4.7,3.3-8.9,3.2v1.1c4.5.1,7.8-1.2,9.7-3.6,2.5-3.1,2-7.3,1.7-9,5.5-.1,9.6-2,12.3-5.5,5.3-7,3.1-18.3,2.3-21.5,13,3.1,23.8,2,32.3-3.2,10.2-6.4,13.8-17,14.6-20,10.6,7.2,21.6-3.3,24-5.8a5.4,5.4,0,0,0,4.2,2.4c5.9.4,13.6-8.2,15.5-10.5,18.5,22.1,51.8,13.2,56,11.9,10,18,38.8,13.7,43.8,12.8-4,33.3,28.1,40.7,33,41.6-7.8,29.9,22.4,50.8,25.4,52.8.3,3.1,3.5,30.1,31,43.4l-215.7-58.1-10.1,16.8.9.6,9.7-16.1Z" transform="translate(-61.93)"/><path d="M1185.93,255.7l.2-1.1c-16.1-3.6-27.9-11.3-35.2-22.8-12.7-20.2-7.1-45.5-7-45.7l.2-.7h-.7c-9.4.1-16-2.4-19.7-7.5-6.3-8.6-2.1-21.7-2-21.8l-1-.3c-.2.6-4.4,13.8,2.2,22.8,3.8,5.2,10.5,7.9,19.9,7.9-.8,4.2-4.5,27.2,7.3,45.9,7.4,11.8,19.4,19.6,35.8,23.3Z" transform="translate(-61.93)"/><path d="M1172,38.5a51.23,51.23,0,0,0,7.8-.6l-.2-1.1c-19.8,3.1-37.7-7.3-37.9-7.4l-.6.9c.2.1,14.1,8.2,30.9,8.2Z" transform="translate(-61.93)"/><path d="M1244.83,77.4l.1-1.1c-34.7-3.3-32.5-50.6-32.4-51.1v-.7l-.7.1c-.6.1-58.9,9-79.3-4.1l-.6.9c19.8,12.7,72.6,5.4,79.4,4.4C1211.23,31.7,1211.33,74.2,1244.83,77.4Z" transform="translate(-61.93)"/><path d="M1183.63,19.8a247.18,247.18,0,0,0,74.9-11.6l-.3-1c-74.8,24-135.7,3.4-136.3,3.2l-.4,1c.3.1,25,8.4,62.1,8.4Z" transform="translate(-61.93)"/><path d="M1222.13,87.3a73.37,73.37,0,0,0,8.1-.5l-.1-1.1c-48.9,5.9-61.9-43.4-62.1-43.9l-1.1.3C1167.13,42.5,1178.93,87.3,1222.13,87.3Z" transform="translate(-61.93)"/><path d="M721.83,34.4c11.2,0,15.9-11.3,16-11.5l-1-.4c0,.1-4.7,11.3-15.7,10.8l-.1,1.1Z" transform="translate(-61.93)"/><path d="M703.33,27.6c23.7,0,32.5-17.2,32.6-17.4l-1-.5c-.1.2-10.4,20.3-39,16.2l-.2,1.1a48.66,48.66,0,0,0,7.6.6Z" transform="translate(-61.93)"/><path d="M677.53,18c29.9,0,56.9-12.8,57.3-13l-.5-1c-.4.2-43.4,20.5-80.5,9.7l-.3,1A81.34,81.34,0,0,0,677.53,18Z" transform="translate(-61.93)"/><path d="M837.93,111.2c.3,0,34-1.3,48.5-18.9,5.5-6.7,7.6-15,6.3-24.6a198,198,0,0,0,42.9,10.6c31,3.6,53.6-3.7,65.5-21.1,3.3-.5,38.2-6.1,43.4-36.1l-1.1-.2c-5.4,30.5-42.4,35.1-42.7,35.2h-.3l-.1.2c-27.9,41.8-107.3,10.3-108.1,10l-.9-.4.2,1c1.6,9.7-.4,18-5.9,24.7-14.2,17.3-47.4,18.5-47.7,18.5Z" transform="translate(-61.93)"/><path d="M1254.93,159.1l.2-1.1c-36.3-6.7-44.5-58.5-44.6-59l-.1-.6-.6.1c-47.3,12.1-67.8-26.9-68-27.3l-.2-.4-.4.1c-41.8,8.2-67.9-25.4-68.2-25.7l-.4-.5-.4.5c-16.1,18.5-29.4,7.4-30,6.9l-.3-.3-.4.3c-.2.2-21.2,16.5-38.8,5.1,7.3.4,32.3.4,40.4-15.1l-1-.5c-9,17.2-41,14.4-41.3,14.4l-1.9-.2,1.5,1.2c17.3,13,38.5-1.6,41.4-3.8,2.3,1.7,15.5,10.2,30.7-6.8,3.5,4.3,29.1,33.2,68.4,25.7,1.9,3.4,17.8,29.9,51.1,29.9a72.6,72.6,0,0,0,17.3-2.2c1.3,5.8,10.7,52.9,45.6,59.3Z" transform="translate(-61.93)"/><path d="M817.73,69.4a78,78,0,0,0,21.5-2.9c20.1-5.8,31.2-18.2,32.9-20.3,5.7,1.7,76.9,22.3,109,3.7,8-4.6,13.1-11.4,15-20l-1.1-.2c-1.9,8.3-6.8,14.8-14.5,19.3-32.9,19-107.8-3.7-108.5-3.9l-.4-.1-.2.3c-.1.1-11.1,14.1-32.6,20.2-19.9,5.7-53.3,5.7-98.9-26.6l-.6.9c32.4,22.8,58.7,29.6,78.4,29.6Z" transform="translate(-61.93)"/><path d="M1040.43,246.9l1-.4c-2.2-6-12-10.8-14.2-11.8l4.6-21.8-30.3-.2v1.1l28.9.2-4.5,21.4.4.2C1026.53,235.6,1038.13,240.8,1040.43,246.9Z" transform="translate(-61.93)"/><path d="M1042.93,255.6l1-.3c-.8-2.9-15.3-18.7-17-20.5l-34.8-30.4-.7.8,34.7,30.3c6.5,7,16.2,18.1,16.8,20.1Z" transform="translate(-61.93)"/><path d="M1034.23,225.6l1-.3c-.9-3.1-4-3.6-5.7-3.4a2.92,2.92,0,0,0-3.1-.6c-1.7-3.9-9.9-7.5-12.1-8.4a3.49,3.49,0,0,0-.6-3.9l-.7.8c1.3,1.1.2,3,.1,3l-.3.6.6.2c.1,0,11,4.2,12.2,8.4l.2.6.6-.2s1.8-.7,2.6.3l.2.3.3-.1c0,.1,3.7-.4,4.7,2.7Z" transform="translate(-61.93)"/><path d="M998.23,175.5c14.8,0,20.7-14.4,22.1-18.4,5.5,5.8,22.6-2.8,25.9-4.6a12.14,12.14,0,0,0,6.5,6.3c13.5,5.9,39.9-4.5,41.1-4.9l-.4-1c-.3.1-27.1,10.7-40.2,4.9a10.94,10.94,0,0,1-6.1-6.2l-.2-.6-.6.3c-.2.1-21.3,11.6-25.7,4.4l-.7-1.1-.3,1.2c-.2.9-5.9,21.3-25.1,18.3l-.2,1.1a25.61,25.61,0,0,0,3.9.3Z" transform="translate(-61.93)"/><path d="M938.53,165.8c.2,0,23.4-4.3,22.5-26.2,5.2,1,37.9,6,51.3-24,2.9,1.2,16.9,5.9,26.3-7.7l-.9-.6c-10,14.4-25.3,7.2-25.5,7.1l-.5-.2-.2.5c-14,32.3-50.6,23.8-51,23.8l-.7-.2v.7c1.3,21.5-20.7,25.6-21.6,25.8l.3,1Z" transform="translate(-61.93)"/><path d="M985.33,199.3A4.14,4.14,0,0,0,988,197c1-2.1.5-4.8.1-6.2,3.7.6,6.8,0,9.1-1.8a10.89,10.89,0,0,0,4-6.8c4.7,1,8.7.3,12.1-2,7.2-4.9,8.7-15.4,8.7-15.9l-1.1-.1c0,.1-1.5,10.5-8.3,15.1-3.3,2.2-7.2,2.8-11.8,1.7l-.6-.1.1.6a10,10,0,0,1-3.7,6.6c-2.2,1.7-5.3,2.2-9.1,1.4l-.9-.2.3.9s1.3,3.8.2,6.2a3.14,3.14,0,0,1-2.1,1.8Z" transform="translate(-61.93)"/><path d="M1076.63,266.8l1-.4c-1.5-4.2-1.3-7.9.4-11.2,3.6-6.7,12.9-9.1,13-9.1l1.1-.3-.9-.7c-5.1-3.7-7.7-7.4-7.9-11a7.68,7.68,0,0,1,2.2-5.8l.5-.5-.6-.4c-.1-.1-7.5-5.4-8.8-13.3-.7-4.2.5-8.3,3.5-12.4l-.9-.6c-3.2,4.3-4.4,8.7-3.7,13.2,1.2,7.2,7,12.2,8.7,13.6a8.68,8.68,0,0,0-2.1,6.2c.2,3.7,2.7,7.5,7.5,11.1-2.7.9-9.5,3.6-12.6,9.4a15.24,15.24,0,0,0-.4,12.2Z" transform="translate(-61.93)"/><path d="M1094.83,288l1-.4c-7.4-20.6,14.6-30.9,14.8-31l-.5-1C1110,255.8,1087.13,266.4,1094.83,288Z" transform="translate(-61.93)"/><path d="M1110.93,256.9l1-.4c-4.5-11.4,8.3-18.2,8.9-18.5l-.5-1C1120.23,237.1,1106.13,244.5,1110.93,256.9Z" transform="translate(-61.93)"/><path d="M1115.23,236.6l.7-.8c-.1-.1-11.9-10.1-12.5-22.8-.3-6.6,2.4-12.9,8.1-18.7l-.8-.8c-5.9,6-8.8,12.5-8.4,19.5.6,13.2,12.4,23.2,12.9,23.6Z" transform="translate(-61.93)"/><path d="M1124.83,239.1l.8-.7c-21.9-25.9-4.8-46.3-4.6-46.5l.6-.7-1-.2c-6.1-.9-10.5-3.5-13.1-7.5-4.7-7.2-2.1-16.9-2.1-17l-1.1-.3c-.1.4-2.7,10.3,2.2,17.9,2.7,4.1,7,6.8,13,7.9-2.8,3.9-14.8,23.4,5.3,47.1Z" transform="translate(-61.93)"/><path d="M1075.73,298.9l.7-.9c-.6-.5-15.5-11.9-22.1-4.5l.8.7c5.9-6.6,20.5,4.6,20.6,4.7Z" transform="translate(-61.93)"/><path d="M1173.93,378.9c.5-.4,48.5-36.4,77.3-46.5l-.4-1c-28.9,10.2-77.1,46.3-77.6,46.7Z" transform="translate(-61.93)"/><path d="M1138,336.6c0-.3.4-28.4,29.8-49.3l.3-.2-.1-.3c0-.2-4.3-25,5.9-34.6l-.8-.8c-10,9.5-6.8,32.1-6.3,35.2-29.6,21.3-30,49.7-30,50Z" transform="translate(-61.93)"/><path d="M1058,153.3c13.7,0,36.6-3.9,52.2-26.8l-.9-.6c-23.1,33.8-62.3,25.4-62.7,25.3l-.2,1.1A64.14,64.14,0,0,0,1058,153.3Z" transform="translate(-61.93)"/><path d="M971.33,194.8c4.2-1.5,3.3-8.7,2.9-11.1,9.9.8,16.5-8.7,17.9-10.9,10.3,5,25.1-16.9,27.3-20.3a6.64,6.64,0,0,0,4.4.3c5.7-1.6,11-10,12.4-12.3,5.1,4.6,13.2-.2,13.5-.4l-.6-.9c-.1,0-8.2,4.9-12.7.1l-.5-.6-.4.7c-.1.1-6,10.7-12.1,12.4a5.33,5.33,0,0,1-4.1-.4l-.5-.3-.3.4c-.2.3-16.6,25.9-26.6,20.2l-.5-.3-.3.5c-.1.1-6.9,12.2-17.8,10.8l-.8-.1.2.8c0,.1,2,9.2-2.1,10.6l.7.8Z" transform="translate(-61.93)"/><path d="M1035.73,230.9l1.1-.2-.5.1.5-.1s-.1-.7.3-1,1.2-.1,2.4.4l.6.3.1-.7a3,3,0,0,1,1.2-1.7,1.91,1.91,0,0,1,1.8.2l1.1.5-.3-1.1s-.6-2.5.5-4a3.19,3.19,0,0,1,2.6-1h.8l-.2-.7c-.2-.7-.6-2.4-.1-3,.2-.2.6-.2,1.2-.1l.4-1c-1.2-.6-4.3-2.5-4.4-4.5,0-1.1.8-2.1,2.4-3.1l1-.6-1.1-.4s-1.8-.6-2.2-1.9c-.2-.7.1-1.5,1-2.5l1.3-1.5-1.9.6c-.7.2-1.6.3-1.9,0-.1-.1-.1-.6.3-1.4l.8-1.6-1.6.9s-3.7,2.1-6.2,1.1a2.71,2.71,0,0,1-1.9-2.1l-.3-1-.6.8c-.2.3-.6.7-.9.6-.1,0-.3-.2-.4-.5l-.4-1-.5,1c-.2.3-.8,1.1-1.4,1.2-.1,0-.4,0-.8-.5l-.7-.8-.3,1s-.8,2.7-2.4,3.4a2.38,2.38,0,0,1-2.3-.3l-1-.6.2,1.1a1.68,1.68,0,0,1-.3,1.2,2.64,2.64,0,0,1-1.9.7h-1.1l.7.8h0c.1.1.1.1,0,.2h0c0,.1-.2.4-1.2.7l.3,1.1c1.1-.3,1.8-.8,2-1.4a.6.6,0,0,0,.1-.4,3.09,3.09,0,0,0,2-1.1,3.7,3.7,0,0,0,.5-1.1,3.31,3.31,0,0,0,2.4,0,5.6,5.6,0,0,0,2.8-3.4,2,2,0,0,0,1.1.3,2.7,2.7,0,0,0,1.7-1,1.23,1.23,0,0,0,.8.4,2,2,0,0,0,1.3-.4,4.73,4.73,0,0,0,2.2,2c2,.7,4.4,0,5.9-.6a1.49,1.49,0,0,0,1.1,1.8,1.1,1.1,0,0,0,.8,0,2.7,2.7,0,0,0-.4,2.3,3.75,3.75,0,0,0,1.9,2.2c-1.5,1.1-2.2,2.2-2.1,3.5.1,2,2,3.6,3.5,4.6l-.3.3c-.8.9-.6,2.5-.4,3.4a4.21,4.21,0,0,0-2.8,1.4,4.86,4.86,0,0,0-.8,3.9,2.54,2.54,0,0,0-1.9.2,3.35,3.35,0,0,0-1.5,1.8c-1.3-.5-2.3-.5-2.9,0a2.86,2.86,0,0,0-.8,2.3Z" transform="translate(-61.93)"/><path d="M1036.43,220.2l1.1-.1-.5.1.5-.1a1.57,1.57,0,0,1,.4-1.3,1.66,1.66,0,0,1,1.2-.5h.7l-.3-.7a1.1,1.1,0,0,1,0-.8c.1-.2.5-.3.7-.3h1.2l-.9-.9c-.4-.4-1.6-1.9-1.4-2.9a1.21,1.21,0,0,1,.7-.7l.9-.4-.9-.5c-.4-.2-1.1-.8-1.1-1.3.1-.3.2-.6.5-.7l-.6-.9a1.78,1.78,0,0,0-1,1.6,2.53,2.53,0,0,0,1,1.8,2.38,2.38,0,0,0-.6,1.1,4,4,0,0,0,1.1,3.1,1,1,0,0,0-.6.5,2,2,0,0,0-.3,1.1,2.85,2.85,0,0,0-1.4.8,2.39,2.39,0,0,0-.4,2Z" transform="translate(-61.93)"/><path d="M1038.53,236.8a2.27,2.27,0,0,1,1.1-1.6,3.59,3.59,0,0,1,2.5-.1l.7.2v-.7a2.52,2.52,0,0,1,.9-2,4,4,0,0,1,3.2-.1l1,.3-.2-1a4.88,4.88,0,0,1,.5-3.9c1.5-2,4.8-2.2,4.8-2.2h1.1l-.7-.8c-.8-1-1.1-1.9-.8-2.6.5-1.3,2.5-1.8,2.5-1.8l1.1-.3-.8-.7q-3.9-3.15-3.6-6.3c.2-3.1,3.5-5.1,3.6-5.1l1.2-.7-1.4-.3a4.05,4.05,0,0,1-3.3-2c-.9-1.9.6-4.6.6-4.6l.7-1.2-1.3.4c-.6.2-2.4.6-3,0-.4-.4-.2-1.3.1-2l.3-.9-1,.2s-4.8,1-8-1.2a6.92,6.92,0,0,1-2.8-5.4l-.1-1.2-.8.9a2.61,2.61,0,0,1-2.1,1.1,1.82,1.82,0,0,1-1.1-1l-.4-.8-.5.7s-1.7,2.1-3.3,2.1a2.09,2.09,0,0,1-1.6-.8l-.7-.8-.2,1.1c-.1.3-1.8,7.8-8.9,6.9l-.8-.1.2.8a4.19,4.19,0,0,1-.4,3.1,3.41,3.41,0,0,1-2.8,1.3l-.6.1.2.6a2.22,2.22,0,0,1-.3,1.6c-.4.5-1.1.6-2.2.6l-1.8-.1,1.4,1.1a1.6,1.6,0,0,1,.7.9h0a.76.76,0,0,1-.5.2l.2,1.1c.7-.2,1.2-.5,1.3-1a1.23,1.23,0,0,0-.2-1,3.38,3.38,0,0,0,1.9-.9,3.08,3.08,0,0,0,.6-1.9,4.43,4.43,0,0,0,3.1-1.7,4.87,4.87,0,0,0,.7-3.3c6,.3,8.4-4.8,9.1-6.9a2.62,2.62,0,0,0,1.7.5c1.5,0,2.9-1.2,3.7-2a2.47,2.47,0,0,0,1.6,1,2.86,2.86,0,0,0,2.3-.8,8.81,8.81,0,0,0,3.1,5.1c2.7,1.9,6.3,1.8,8,1.6a2.18,2.18,0,0,0,.4,2.2c.7.8,2,.7,3,.6a6.64,6.64,0,0,0-.2,4.6,4.22,4.22,0,0,0,2.9,2.3,7.88,7.88,0,0,0-3.1,5.2q-.3,3.3,3.3,6.6a4.67,4.67,0,0,0-2.4,2.2,3.31,3.31,0,0,0,.5,2.9,7.29,7.29,0,0,0-4.7,2.5,5.32,5.32,0,0,0-.9,3.9,4.24,4.24,0,0,0-3.3.4,3.16,3.16,0,0,0-1.3,2.2,4.16,4.16,0,0,0-2.7.3,3.33,3.33,0,0,0-1.7,2.3l.7.1Z" transform="translate(-61.93)"/><path d="M1041.63,247.3c.3-1.8.9-2.8,1.9-3.1,1.5-.5,3.6,1.1,4.3,1.8l1.2,1.2-.3-1.7c-.5-2.7-.2-4.6.8-5.3,1.3-.9,3.6-.1,4.4.3l1.1.6-.4-1.2q-1.2-3.75.6-6c2.3-2.9,7.6-2.8,7.6-2.8h.9l-.4-.8c-1.1-2.1-1.3-3.7-.7-4.9,1-1.7,3.6-1.9,3.7-1.9l1.4-.1-1.1-.9c-3.5-2.8-5.2-5.8-5.2-8.8.1-4.8,4.8-8.2,4.8-8.3l1-.7-1.1-.3c-2.4-.6-4-1.7-4.5-3.3-1.2-3.3,2.2-7.9,2.2-7.9l1.1-1.4-1.7.6c-2.8.9-4.8,1-5.8.2a2.35,2.35,0,0,1-.8-2.1l.1-.8-.8.2c-3.7,1.1-6.9.9-9.6-.7-4.7-2.7-6.4-8.4-6.4-8.5l-.3-.9-.7.7c-1,1.1-2,1.5-2.8,1.3-1.3-.3-2.1-2.1-2.1-2.1l-.4-1-.6,1c-.9,1.5-1.9,2.4-3.2,2.5-2.3.3-4.6-2.1-4.6-2.1l-.7-.8-.2,1.1c-.6,3.1-2,5.2-4.2,6.4-5.5,2.9-14-.6-14.1-.6l-1.1-.5.4,1.1c.6,1.9.5,3.5-.4,4.7-2.1,3-7.9,3.1-8,3.1h-1l.6.8c.9,1.3,1.1,2.4.7,3.2-.7,1.5-3.4,2-4.4,2.1l-1.3.1,1,.9c.7.6,1.1,1.2,1,1.5-.2.6-1.4.9-2,1l.1,1.1c.3,0,2.5-.4,2.9-1.8a1.9,1.9,0,0,0-.5-1.9c1.3-.3,3.4-.9,4.2-2.5a3.64,3.64,0,0,0-.3-3.5c1.9-.2,6-.8,7.9-3.5a5.7,5.7,0,0,0,.8-4.6c2.5.9,9.2,2.8,14,.2a9.36,9.36,0,0,0,4.6-6.2,7,7,0,0,0,4.8,1.8,5.1,5.1,0,0,0,3.5-2.2,4.36,4.36,0,0,0,2.5,1.9,4,4,0,0,0,3.1-1.1c.7,1.8,2.5,6,6.6,8.3a12.85,12.85,0,0,0,9.8,1,3.47,3.47,0,0,0,1.2,2.3c1.2.9,3,1.1,5.4.5-1,1.7-2.5,4.9-1.5,7.7.6,1.7,2,2.9,4.3,3.7-1.5,1.3-4.3,4.4-4.4,8.4-.1,3.1,1.5,6.1,4.7,8.9a5,5,0,0,0-3.3,2.3c-.8,1.3-.7,3.1.3,5.1-1.8.1-5.6.6-7.7,3.2-1.2,1.5-1.5,3.5-1,5.9-1.2-.4-3.1-.8-4.5.2-1.2.9-1.6,2.5-1.4,5a5.6,5.6,0,0,0-4.3-1.2c-1.3.4-2.2,1.8-2.6,4l.9.1Z" transform="translate(-61.93)"/><path d="M1087.33,279.3l1-.4c-3.4-9.1-3.5-16-.1-20.5,4.6-6.3,14.3-5.9,14.4-5.9l1.2.1-.7-.9c-3-3.9-4-7.1-2.9-9.7,2.2-5.1,11.9-6.1,12-6.1l1.8-.2-1.6-.8c-8.7-4.5-13.5-10-14.5-16.6-1.7-11.8,9.9-22.9,10-23l.8-.8-1.1-.2c-5.2-.9-8.7-3-10.3-6.4-3.4-7.2,2.6-17.6,2.6-17.8l.5-.9-1,.1q-6.3.6-8.4-2.4c-2.3-3.3.3-8.8.3-8.8l.8-1.8-1.6,1.1c-14.6,9.6-27,13.3-35.8,10.5a15.75,15.75,0,0,1-9.8-8.4l-1,.4a16.7,16.7,0,0,0,10.5,9.1c9,2.9,20.8-.4,35.3-9.7-.7,2.1-1.4,5.7.4,8.3,1.5,2.1,4.3,3.1,8.4,2.9-1.4,2.8-5.3,11.4-2.2,17.9,1.6,3.5,5,5.8,10,6.8-2.6,2.7-11.1,12.5-9.6,23.2.9,6.5,5.5,12.1,13.6,16.6-3,.5-9.3,2.2-11.2,6.6q-1.8,4.2,2.4,9.9c-2.8.1-10.2.8-14.2,6.3-3.5,4.8-3.6,12,0,21.5Z" transform="translate(-61.93)"/><path d="M1110.43,482.6c5.2-20.1,50.8-21.3,51.3-21.3l.2-.1c.4-.2,43-20.7,70.5-13.9l.3-1.1c-27.1-6.7-68.7,12.8-71.1,13.9-3.2.1-46.9,1.6-52.2,22.1l1,.4Z" transform="translate(-61.93)"/><path d="M1232,446.9l1-.3c-9.6-33,25.4-109.8,25.7-110.6l-1-.5C1257.43,336.3,1222.33,413.5,1232,446.9Z" transform="translate(-61.93)"/><path d="M1220.83,316l1-.4c-8.1-18.3,13.4-46.7,13.6-46.9l-.9-.7C1233.63,269.2,1212.43,297.1,1220.83,316Z" transform="translate(-61.93)"/><path d="M1211.83,311.3l.3-1-.2.5.2-.5c-.1,0-1.7-.6-2.7-3.3-1.6-4.3-2.2-15.4,12.3-42.1l-1-.5c-14,25.8-14.4,37.7-12.3,43.1,1.3,3.1,3.3,3.8,3.4,3.8Z" transform="translate(-61.93)"/><path d="M1144.23,244.3l1-.5c-3.4-7.3,1.4-20.1,1.4-20.2l-1-.4c-.2.5-5,13.3-1.4,21.1Z" transform="translate(-61.93)"/><path d="M1134.33,241.5l1.1-.1c-1.3-9.7,9.6-21.3,9.8-21.5l-.8-.8c-.5.5-11.5,12.2-10.1,22.4Z" transform="translate(-61.93)"/><path d="M1156,247.6l.6-.9c-7.7-5.1-6.6-16.1-6.6-16.2l-1.1-.1C1148.93,230.9,1147.73,242.1,1156,247.6Z" transform="translate(-61.93)"/><path d="M1174.23,178.5a13.4,13.4,0,0,0,2-.1l-.1-1.1c-7,.4-13.1-1.5-17.9-5.8-11.6-10.2-12.8-30.5-12.9-30.7V140l-.7.3c-18.4,7.9-33.8-15-34-15.2l-.9.6c.2.2,15.7,23.3,34.6,15.9.4,3.8,2.6,21.3,13.2,30.7a23.92,23.92,0,0,0,16.7,6.2Z" transform="translate(-61.93)"/></g></g></svg>