<?xml version="1.0" encoding="utf-8"?>
<!-- Generator: Adobe Illustrator 22.0.1, SVG Export Plug-In . SVG Version: 6.00 Build 0)  -->
<svg version="1.1" id="Layer_1" xmlns="http://www.w3.org/2000/svg" xmlns:xlink="http://www.w3.org/1999/xlink" x="0px" y="0px"
	 viewBox="0 0 1240.6 774.7" style="enable-background:new 0 0 1240.6 774.7;" xml:space="preserve">
<style type="text/css">
	.st0{clip-path:url(#SVGID_2_);}
	.st1{clip-path:url(#SVGID_4_);}
	.st2{fill:none;stroke:#000000;stroke-width:1.5;stroke-miterlimit:10;}
</style>
<g id="SpiderWrapper">
	<g>
		<defs>
			<rect id="SVGID_1_" y="0.1" width="1240" height="774.4"/>
		</defs>
		<clipPath id="SVGID_2_">
			<use xlink:href="#SVGID_1_"  style="overflow:visible;"/>
		</clipPath>
		<g class="st0">
			<g>
				<polygon points="1013.2,212.4 1073,156.7 1072.2,155.9 1012.5,211.6 				"/>
			</g>
			<g>
				<polygon points="1013.4,212.1 1065.8,0.3 1064.8,0 1012.3,211.8 				"/>
			</g>
			<g>
				<polygon points="1012.3,212.1 1013.4,211.9 972.5,0 971.4,0.2 				"/>
			</g>
			<g>
				<polygon points="1012.5,212.3 1013.3,211.6 812.3,-0.2 811.6,0.5 				"/>
			</g>
			<g>
				<polygon points="1012.7,212.5 1013,211.5 349.1,-0.4 348.8,0.7 				"/>
			</g>
			<g>
				<polygon points="1012.7,212.5 1013,211.1 43.9,-1.5 43.6,0 				"/>
			</g>
			<g>
				<polygon points="1013.2,212.4 1240.3,67.2 1239.7,66.3 1012.6,211.5 				"/>
			</g>
			<g>
				<polygon points="1013,212.5 1240.1,156.8 1239.9,155.8 1012.7,211.4 				"/>
			</g>
			<g>
				<polygon points="1239.7,334.8 1240.3,333.8 1013.1,211.5 1012.6,212.5 				"/>
			</g>
			<g>
				<polygon points="1239.6,475.5 1240.4,474.8 1013.3,211.6 1012.5,212.3 				"/>
			</g>
			<g>
				<polygon points="1239.5,642.5 1240.5,642 1013.4,211.7 1012.4,212.2 				"/>
			</g>
			<g>
				<polygon points="1178.7,775.5 1013.8,211.8 1012.3,212.2 1177.3,775.5 				"/>
			</g>
			<g>
				<polygon points="1013.4,212 1027.6,0.2 1026.5,0.1 1012.3,211.9 				"/>
			</g>
			<g>
				<polygon points="1012.6,212.5 1013.1,211.5 965.7,186.1 965.1,187.1 				"/>
			</g>
			<g>
				<path d="M965.2,187.1l0.5-1c-2.2-1-216.7-105.9-243.9-148.5L716.4,0l-1.1,0.2l5.5,37.8l0.1,0.1C747.9,80.9,963,186,965.2,187.1
					L965.2,187.1z"/>
			</g>
			<g>
				<polygon points="721.2,38.3 721.5,37.3 592.1,-0.4 591.8,0.7 				"/>
			</g>
			<g>
				<polygon points="1073,156.6 1140.2,44 1094.2,-0.3 1093.4,0.5 1138.8,44.2 1072.1,156 				"/>
			</g>
			<g>
				<polygon points="1139.7,44.6 1240.2,6.6 1239.8,5.6 1139.3,43.6 				"/>
			</g>
			<g>
				<path d="M1168,254.1c0.6-0.5,57.3-48.3,72.5-82.3l-1-0.4c-15.1,33.7-71.6,81.4-72.2,81.9L1168,254.1L1168,254.1z"/>
			</g>
			<g>
				<path d="M1240,212.5l0.1-1.1c-9.3-0.5-11.9-19.3-11.9-19.5v-0.3l-0.2-0.1c-10.1-6.1-6.2-30.3-6.1-30.5l-1.1-0.2
					c-0.2,1-4,24.8,6.4,31.5C1227.4,194.7,1230.3,212,1240,212.5L1240,212.5z"/>
			</g>
			<g>
				<path d="M1239,225.6c0.3,0,0.7,0,1,0v-1.1c-7.7,0.2-13.3-1.8-16.6-5.9c-5.4-6.6-3.2-16.4-3.2-16.5l0.1-0.4l-0.4-0.2
					c-0.3-0.1-27.5-14.1-17.8-35.6l0.3-0.7l-0.8-0.1c-0.4,0-38.6-4.1-36.7-50v-0.7l-0.7,0.1c-0.5,0.1-49.1,8.3-55.4-18.3l-0.2-0.7
					l-0.6,0.3c-0.5,0.2-48.4,22.3-64.9-2.8l-0.3-0.5l-0.5,0.3c-0.1,0.1-13.5,9.9-21.4,2.9l-0.3-0.3l-0.4,0.3
					c-0.2,0.1-17.8,14.2-28.8,3.1l-0.6-0.6l-0.3,0.7c-0.2,0.4-17.2,37.7-59.8,25.6l-1-0.3l0.4,1c0,0.1,4.6,12.8-0.9,22.7
					c-3.2,5.6-9,9.3-17.4,10.9L911,159l0.4,0.7c0,0.1,4,6.4,2,11.5c-1.1,2.8-3.8,4.8-8.1,5.8l-0.9,0.2l0.6,0.7c0,0,3.4,3.8,2.5,6.5
					c-0.4,1.3-1.8,2.2-4.1,2.7l0.2,1.1c2.7-0.6,4.4-1.8,4.9-3.5c0.8-2.6-1.2-5.6-2.2-6.9c4.1-1.2,6.8-3.3,8-6.3
					c1.8-4.7-0.7-9.9-1.7-11.8c8.3-1.8,14.1-5.6,17.4-11.3c4.9-8.8,2.3-19.3,1.3-22.6c39.6,10.6,57.2-20.7,59.8-25.8
					c10.8,9.9,26.8-1.4,29.4-3.3c7.8,6.4,19.5-1.1,22-2.8c16.3,23.6,59.8,5.5,65.4,3c6.7,25.1,49.9,19.5,55.8,18.6
					c-1.4,42.8,31.6,49.6,37,50.4c-8.7,20.7,14.9,34.4,18.2,36.1c-0.4,2-1.7,10.8,3.5,17C1225.9,223.5,1231.5,225.6,1239,225.6
					L1239,225.6z"/>
			</g>
			<g>
				<path d="M1236.8,254.4c1.1,0,2.1-0.1,3.3-0.2l-0.1-1.1c-5.8,0.8-11-0.6-15.2-4.2c-12.5-10.4-13.9-35.9-13.9-36.2l-1.1,0.1
					c0.1,1.1,1.5,26.3,14.3,37C1227.7,252.9,1232,254.4,1236.8,254.4L1236.8,254.4z"/>
			</g>
			<g>
				<path d="M1190.3,260.3l0.4-1c-3-1.3-5-3.3-6-6c-2.6-6.7,1.4-15.4,1.5-15.5l-1-0.5c-0.2,0.4-4.2,9.3-1.5,16.4
					C1184.8,256.7,1187.1,258.9,1190.3,260.3L1190.3,260.3z"/>
			</g>
			<g>
				<path d="M1214.1,266.7l0.3-1.1c-25-6.7-22-33.7-22-34l-1.1-0.1C1191.3,231.8,1188.1,259.7,1214.1,266.7L1214.1,266.7z"/>
			</g>
			<g>
				<path d="M1239.9,273.6l0.3-1.1c-39.4-10.6-41.8-46.5-41.8-46.9v-0.3l-0.2-0.2c-0.3-0.2-33.6-21.5-25-52.3l0.2-0.6l-0.6-0.1
					c-1.5-0.2-37.3-5.8-32.5-41.2l0.1-0.8l-0.8,0.2c-0.3,0.1-33.3,6.9-43.6-12.5l-0.2-0.4l-0.4,0.1c-0.4,0.1-36.6,11.7-55.6-12
					l-0.4-0.5l-0.4,0.5c-0.1,0.1-8.9,11-15,10.6c-1.5-0.1-2.8-0.9-3.7-2.4l-0.4-0.6l-0.5,0.6c-0.1,0.1-12.3,14.1-23.6,5.7l-0.7-0.5
					l-0.2,0.8c0,0.1-2.8,12.9-14.3,20.1c-8.4,5.2-19.3,6.2-32.3,2.9l-0.9-0.2l0.3,0.9c0,0.1,3.9,13.9-1.9,21.5c-2.5,3.3-6.6,5-12,5
					c0,0,0,0-0.1,0H933l0.2,0.7c0,0.1,1.3,5.2-1.4,8.7c-1.7,2.2-4.7,3.3-8.9,3.2v1.1c4.5,0.1,7.8-1.2,9.7-3.6c2.5-3.1,2-7.3,1.7-9
					c5.5-0.1,9.6-2,12.3-5.5c5.3-7,3.1-18.3,2.3-21.5c13,3.1,23.8,2,32.3-3.2c10.2-6.4,13.8-17,14.6-20c10.6,7.2,21.6-3.3,24-5.8
					c1.1,1.5,2.5,2.3,4.2,2.4c5.9,0.4,13.6-8.2,15.5-10.5c18.5,22.1,51.8,13.2,56,11.9c10,18,38.8,13.7,43.8,12.8
					c-4,33.3,28.1,40.7,33,41.6c-7.8,29.9,22.4,50.8,25.4,52.8c0.3,3.1,3.5,30.1,31,43.4L1013,211.3l-10.1,16.8l0.9,0.6l9.7-16.1
					L1239.9,273.6L1239.9,273.6z"/>
			</g>
			<g>
				<path d="M1167.6,254.2l0.2-1.1c-16.1-3.6-27.9-11.3-35.2-22.8c-12.7-20.2-7.1-45.5-7-45.7l0.2-0.7h-0.7
					c-9.4,0.1-16-2.4-19.7-7.5c-6.3-8.6-2.1-21.7-2-21.8l-1-0.3c-0.2,0.6-4.4,13.8,2.2,22.8c3.8,5.2,10.5,7.9,19.9,7.9
					c-0.8,4.2-4.5,27.2,7.3,45.9C1139.2,242.7,1151.2,250.5,1167.6,254.2L1167.6,254.2z"/>
			</g>
			<g>
				<path d="M1153.7,37c2.5,0,5.1-0.2,7.8-0.6l-0.2-1.1c-19.8,3.1-37.7-7.3-37.9-7.4l-0.6,0.9C1123,28.9,1136.9,37,1153.7,37
					L1153.7,37z"/>
			</g>
			<g>
				<path d="M1226.5,75.9l0.1-1.1c-34.7-3.3-32.5-50.6-32.4-51.1V23l-0.7,0.1c-0.6,0.1-58.9,9-79.3-4.1l-0.6,0.9
					c19.8,12.7,72.6,5.4,79.4,4.4C1192.9,30.2,1193,72.7,1226.5,75.9L1226.5,75.9z"/>
			</g>
			<g>
				<path d="M1165.3,18.3c21.5,0,47.3-2.8,74.9-11.6l-0.3-1c-74.8,24-135.7,3.4-136.3,3.2l-0.4,1C1103.5,10,1128.2,18.3,1165.3,18.3
					L1165.3,18.3z"/>
			</g>
			<g>
				<path d="M1203.8,85.8c2.6,0,5.3-0.2,8.1-0.5l-0.1-1.1c-48.9,5.9-61.9-43.4-62.1-43.9l-1.1,0.3
					C1148.8,41,1160.6,85.8,1203.8,85.8L1203.8,85.8z"/>
			</g>
			<g>
				<path d="M703.5,32.9c11.2,0,15.9-11.3,16-11.5l-1-0.4c0,0.1-4.7,11.3-15.7,10.8l-0.1,1.1C702.9,32.9,703.2,32.9,703.5,32.9
					L703.5,32.9z"/>
			</g>
			<g>
				<path d="M685,26.1c23.7,0,32.5-17.2,32.6-17.4l-1-0.5c-0.1,0.2-10.4,20.3-39,16.2l-0.2,1.1C680.1,26,682.6,26.1,685,26.1
					L685,26.1z"/>
			</g>
			<g>
				<path d="M659.2,16.5c29.9,0,56.9-12.8,57.3-13l-0.5-1c-0.4,0.2-43.4,20.5-80.5,9.7l-0.3,1C643.2,15.6,651.3,16.5,659.2,16.5
					L659.2,16.5z"/>
			</g>
			<g>
				<path d="M819.6,109.7c0.3,0,34-1.3,48.5-18.9c5.5-6.7,7.6-15,6.3-24.6c4.1,1.6,22.3,8.1,42.9,10.6c31,3.6,53.6-3.7,65.5-21.1
					c3.3-0.5,38.2-6.1,43.4-36.1l-1.1-0.2c-5.4,30.5-42.4,35.1-42.7,35.2h-0.3l-0.1,0.2c-27.9,41.8-107.3,10.3-108.1,10l-0.9-0.4
					l0.2,1c1.6,9.7-0.4,18-5.9,24.7c-14.2,17.3-47.4,18.5-47.7,18.5V109.7L819.6,109.7z"/>
			</g>
			<g>
				<path d="M1236.6,157.6l0.2-1.1c-36.3-6.7-44.5-58.5-44.6-59l-0.1-0.6l-0.6,0.1c-47.3,12.1-67.8-26.9-68-27.3l-0.2-0.4l-0.4,0.1
					c-41.8,8.2-67.9-25.4-68.2-25.7l-0.4-0.5l-0.4,0.5c-16.1,18.5-29.4,7.4-30,6.9l-0.3-0.3l-0.4,0.3c-0.2,0.2-21.2,16.5-38.8,5.1
					c7.3,0.4,32.3,0.4,40.4-15.1l-1-0.5c-9,17.2-41,14.4-41.3,14.4l-1.9-0.2l1.5,1.2c17.3,13,38.5-1.6,41.4-3.8
					c2.3,1.7,15.5,10.2,30.7-6.8c3.5,4.3,29.1,33.2,68.4,25.7c1.9,3.4,17.8,29.9,51.1,29.9c5.3,0,11.1-0.7,17.3-2.2
					C1192.3,104.1,1201.7,151.2,1236.6,157.6L1236.6,157.6z"/>
			</g>
			<g>
				<path d="M799.4,67.9c8.3,0,15.5-1.2,21.5-2.9c20.1-5.8,31.2-18.2,32.9-20.3c5.7,1.7,76.9,22.3,109,3.7c8-4.6,13.1-11.4,15-20
					l-1.1-0.2c-1.9,8.3-6.8,14.8-14.5,19.3c-32.9,19-107.8-3.7-108.5-3.9l-0.4-0.1l-0.2,0.3C853,43.9,842,57.9,820.5,64
					c-19.9,5.7-53.3,5.7-98.9-26.6l-0.6,0.9C753.4,61.1,779.7,67.9,799.4,67.9L799.4,67.9z"/>
			</g>
			<g>
				<path d="M1022.1,245.4l1-0.4c-2.2-6-12-10.8-14.2-11.8l4.6-21.8l-30.3-0.2v1.1l28.9,0.2l-4.5,21.4l0.4,0.2
					C1008.2,234.1,1019.8,239.3,1022.1,245.4L1022.1,245.4z"/>
			</g>
			<g>
				<path d="M1024.6,254.1l1-0.3c-0.8-2.9-15.3-18.7-17-20.5l-34.8-30.4l-0.7,0.8l34.7,30.3C1014.3,241,1024,252.1,1024.6,254.1
					L1024.6,254.1z"/>
			</g>
			<g>
				<path d="M1015.9,224.1l1-0.3c-0.9-3.1-4-3.6-5.7-3.4c-0.9-1-2.3-0.8-3.1-0.6c-1.7-3.9-9.9-7.5-12.1-8.4c0.4-1.1,0.7-2.7-0.6-3.9
					l-0.7,0.8c1.3,1.1,0.2,3,0.1,3l-0.3,0.6l0.6,0.2c0.1,0,11,4.2,12.2,8.4l0.2,0.6l0.6-0.2c0,0,1.8-0.7,2.6,0.3l0.2,0.3l0.3-0.1
					C1011.2,221.5,1014.9,221,1015.9,224.1L1015.9,224.1z"/>
			</g>
			<g>
				<path d="M979.9,174c14.8,0,20.7-14.4,22.1-18.4c5.5,5.8,22.6-2.8,25.9-4.6c1.2,2.8,3.4,4.9,6.5,6.3c13.5,5.9,39.9-4.5,41.1-4.9
					l-0.4-1c-0.3,0.1-27.1,10.7-40.2,4.9c-3-1.3-5.1-3.4-6.1-6.2l-0.2-0.6l-0.6,0.3c-0.2,0.1-21.3,11.6-25.7,4.4l-0.7-1.1l-0.3,1.2
					c-0.2,0.9-5.9,21.3-25.1,18.3l-0.2,1.1C977.3,173.9,978.6,174,979.9,174L979.9,174z"/>
			</g>
			<g>
				<path d="M920.2,164.3c0.2,0,23.4-4.3,22.5-26.2c5.2,1,37.9,6,51.3-24c2.9,1.2,16.9,5.9,26.3-7.7l-0.9-0.6
					c-10,14.4-25.3,7.2-25.5,7.1l-0.5-0.2l-0.2,0.5c-14,32.3-50.6,23.8-51,23.8l-0.7-0.2v0.7c1.3,21.5-20.7,25.6-21.6,25.8
					L920.2,164.3L920.2,164.3z"/>
			</g>
			<g>
				<path d="M967,197.8c1.3-0.4,2.2-1.2,2.7-2.3c1-2.1,0.5-4.8,0.1-6.2c3.7,0.6,6.8,0,9.1-1.8c2.9-2.2,3.8-5.5,4-6.8
					c4.7,1,8.7,0.3,12.1-2c7.2-4.9,8.7-15.4,8.7-15.9l-1.1-0.1c0,0.1-1.5,10.5-8.3,15.1c-3.3,2.2-7.2,2.8-11.8,1.7l-0.6-0.1l0.1,0.6
					c0,0-0.4,4.2-3.7,6.6c-2.2,1.7-5.3,2.2-9.1,1.4l-0.9-0.2l0.3,0.9c0,0,1.3,3.8,0.2,6.2c-0.4,0.9-1.1,1.5-2.1,1.8L967,197.8
					L967,197.8z"/>
			</g>
			<g>
				<path d="M1058.3,265.3l1-0.4c-1.5-4.2-1.3-7.9,0.4-11.2c3.6-6.7,12.9-9.1,13-9.1l1.1-0.3l-0.9-0.7c-5.1-3.7-7.7-7.4-7.9-11
					c-0.2-3.6,2.2-5.8,2.2-5.8l0.5-0.5l-0.6-0.4c-0.1-0.1-7.5-5.4-8.8-13.3c-0.7-4.2,0.5-8.3,3.5-12.4l-0.9-0.6
					c-3.2,4.3-4.4,8.7-3.7,13.2c1.2,7.2,7,12.2,8.7,13.6c-0.8,0.9-2.3,3.1-2.1,6.2c0.2,3.7,2.7,7.5,7.5,11.1
					c-2.7,0.9-9.5,3.6-12.6,9.4C1056.9,256.8,1056.7,260.9,1058.3,265.3L1058.3,265.3z"/>
			</g>
			<g>
				<path d="M1076.5,286.5l1-0.4c-7.4-20.6,14.6-30.9,14.8-31l-0.5-1C1091.7,254.3,1068.8,264.9,1076.5,286.5L1076.5,286.5z"/>
			</g>
			<g>
				<path d="M1092.6,255.4l1-0.4c-4.5-11.4,8.3-18.2,8.9-18.5l-0.5-1C1101.9,235.6,1087.8,243,1092.6,255.4L1092.6,255.4z"/>
			</g>
			<g>
				<path d="M1096.9,235.1l0.7-0.8c-0.1-0.1-11.9-10.1-12.5-22.8c-0.3-6.6,2.4-12.9,8.1-18.7l-0.8-0.8c-5.9,6-8.8,12.5-8.4,19.5
					C1084.6,224.7,1096.4,234.7,1096.9,235.1L1096.9,235.1z"/>
			</g>
			<g>
				<path d="M1106.5,237.6l0.8-0.7c-21.9-25.9-4.8-46.3-4.6-46.5l0.6-0.7l-1-0.2c-6.1-0.9-10.5-3.5-13.1-7.5
					c-4.7-7.2-2.1-16.9-2.1-17l-1.1-0.3c-0.1,0.4-2.7,10.3,2.2,17.9c2.7,4.1,7,6.8,13,7.9C1098.4,194.4,1086.4,213.9,1106.5,237.6
					L1106.5,237.6z"/>
			</g>
			<g>
				<path d="M1057.4,297.4l0.7-0.9c-0.6-0.5-15.5-11.9-22.1-4.5l0.8,0.7C1042.7,286.1,1057.3,297.3,1057.4,297.4L1057.4,297.4z"/>
			</g>
			<g>
				<path d="M1155.6,377.4c0.5-0.4,48.5-36.4,77.3-46.5l-0.4-1c-28.9,10.2-77.1,46.3-77.6,46.7L1155.6,377.4L1155.6,377.4z"/>
			</g>
			<g>
				<path d="M1119.7,335.1c0-0.3,0.4-28.4,29.8-49.3l0.3-0.2l-0.1-0.3c0-0.2-4.3-25,5.9-34.6l-0.8-0.8c-10,9.5-6.8,32.1-6.3,35.2
					c-29.6,21.3-30,49.7-30,50H1119.7L1119.7,335.1z"/>
			</g>
			<g>
				<path d="M1039.7,151.8c13.7,0,36.6-3.9,52.2-26.8l-0.9-0.6c-23.1,33.8-62.3,25.4-62.7,25.3l-0.2,1.1
					C1028.2,150.8,1032.7,151.8,1039.7,151.8L1039.7,151.8z"/>
			</g>
			<g>
				<path d="M953,193.3c4.2-1.5,3.3-8.7,2.9-11.1c9.9,0.8,16.5-8.7,17.9-10.9c10.3,5,25.1-16.9,27.3-20.3c1.4,0.6,2.9,0.7,4.4,0.3
					c5.7-1.6,11-10,12.4-12.3c5.1,4.6,13.2-0.2,13.5-0.4l-0.6-0.9c-0.1,0-8.2,4.9-12.7,0.1l-0.5-0.6l-0.4,0.7
					c-0.1,0.1-6,10.7-12.1,12.4c-1.5,0.4-2.8,0.3-4.1-0.4l-0.5-0.3l-0.3,0.4c-0.2,0.3-16.6,25.9-26.6,20.2l-0.5-0.3l-0.3,0.5
					c-0.1,0.1-6.9,12.2-17.8,10.8l-0.8-0.1l0.2,0.8c0,0.1,2,9.2-2.1,10.6L953,193.3L953,193.3z"/>
			</g>
			<g>
				<path d="M1017.4,229.4l1.1-0.2l-0.5,0.1l0.5-0.1c0,0-0.1-0.7,0.3-1c0.4-0.3,1.2-0.1,2.4,0.4l0.6,0.3l0.1-0.7
					c0,0,0.3-1.3,1.2-1.7c0.5-0.2,1.1-0.2,1.8,0.2l1.1,0.5l-0.3-1.1c0,0-0.6-2.5,0.5-4c0.5-0.7,1.4-1,2.6-1l0,0h0.8l-0.2-0.7
					c-0.2-0.7-0.6-2.4-0.1-3c0.2-0.2,0.6-0.2,1.2-0.1l0.4-1c-1.2-0.6-4.3-2.5-4.4-4.5c0-1.1,0.8-2.1,2.4-3.1l1-0.6l-1.1-0.4
					c0,0-1.8-0.6-2.2-1.9c-0.2-0.7,0.1-1.5,1-2.5l1.3-1.5l-1.9,0.6c-0.7,0.2-1.6,0.3-1.9,0c-0.1-0.1-0.1-0.6,0.3-1.4l0.8-1.6
					l-1.6,0.9c0,0-3.7,2.1-6.2,1.1c-0.9-0.3-1.6-1-1.9-2.1l-0.3-1l-0.6,0.8c-0.2,0.3-0.6,0.7-0.9,0.6c-0.1,0-0.3-0.2-0.4-0.5l-0.4-1
					l-0.5,1c-0.2,0.3-0.8,1.1-1.4,1.2c-0.1,0-0.4,0-0.8-0.5l-0.7-0.8l-0.3,1c0,0-0.8,2.7-2.4,3.4c-0.7,0.3-1.4,0.2-2.3-0.3l-1-0.6
					l0.2,1.1c0,0,0.1,0.7-0.3,1.2c-0.4,0.4-1,0.7-1.9,0.7h-1.1l0.7,0.8l0,0c0,0,0.1,0.1,0,0.2c0,0.1-0.2,0.4-1.2,0.7l0.3,1.1
					c1.1-0.3,1.8-0.8,2-1.4c0.1-0.2,0.1-0.3,0.1-0.4c0.9-0.1,1.6-0.5,2-1.1c0.3-0.4,0.4-0.8,0.5-1.1c0.9,0.3,1.7,0.3,2.4,0
					c1.5-0.6,2.4-2.3,2.8-3.4c0.4,0.2,0.8,0.3,1.1,0.3c0.7-0.1,1.3-0.6,1.7-1c0.2,0.2,0.5,0.4,0.8,0.4c0.5,0.1,0.9-0.2,1.3-0.4
					c0.5,1,1.3,1.6,2.2,2c2,0.7,4.4,0,5.9-0.6c-0.1,0.4,0,0.9,0.3,1.3c0.4,0.5,1,0.6,1.6,0.5c-0.5,0.8-0.6,1.6-0.4,2.3
					c0.3,1.1,1.2,1.8,1.9,2.2c-1.5,1.1-2.2,2.2-2.1,3.5c0.1,2,2,3.6,3.5,4.6c-0.1,0.1-0.2,0.2-0.3,0.3c-0.8,0.9-0.6,2.5-0.4,3.4
					c-1.2,0.1-2.1,0.6-2.8,1.4c-0.9,1.2-1,2.9-0.8,3.9c-0.7-0.2-1.3-0.1-1.9,0.2c-0.8,0.4-1.3,1.2-1.5,1.8c-1.3-0.5-2.3-0.5-2.9,0
					C1017.2,228,1017.4,229.3,1017.4,229.4L1017.4,229.4z"/>
			</g>
			<g>
				<path d="M1018.1,218.7l1.1-0.1l-0.5,0.1l0.5-0.1c0,0-0.1-0.8,0.4-1.3c0.3-0.3,0.7-0.5,1.2-0.5h0.7l-0.3-0.7c0-0.1-0.1-0.5,0-0.8
					c0.1-0.2,0.5-0.3,0.7-0.3h1.2l-0.9-0.9c-0.4-0.4-1.6-1.9-1.4-2.9c0.1-0.3,0.3-0.6,0.7-0.7l0.9-0.4l-0.9-0.5
					c-0.4-0.2-1.1-0.8-1.1-1.3c0-0.2,0.2-0.5,0.5-0.7l-0.6-0.9c-0.9,0.6-1,1.2-1,1.6c0,0.7,0.5,1.4,1,1.8c-0.4,0.4-0.5,0.8-0.6,1.1
					c-0.2,1.1,0.5,2.4,1.1,3.1c-0.3,0.1-0.5,0.3-0.6,0.5c-0.2,0.4-0.3,0.8-0.3,1.1c-0.6,0.1-1,0.4-1.4,0.8
					C1017.9,217.4,1018,218.6,1018.1,218.7L1018.1,218.7z"/>
			</g>
			<g>
				<path d="M1020.2,235.3c0.2-0.8,0.6-1.3,1.1-1.6c1.1-0.6,2.5-0.1,2.5-0.1l0.7,0.2v-0.7c0.1-0.9,0.4-1.6,0.9-2
					c1-0.7,2.7-0.3,3.2-0.1l1,0.3l-0.2-1c-0.4-1.6-0.2-2.9,0.5-3.9c1.5-2,4.8-2.2,4.8-2.2h1.1l-0.7-0.8c-0.8-1-1.1-1.9-0.8-2.6
					c0.5-1.3,2.5-1.8,2.5-1.8l1.1-0.3l-0.8-0.7c-2.6-2.1-3.8-4.2-3.6-6.3c0.2-3.1,3.5-5.1,3.6-5.1l1.2-0.7l-1.4-0.3
					c-1.7-0.3-2.8-1-3.3-2c-0.9-1.9,0.6-4.6,0.6-4.6l0.7-1.2l-1.3,0.4c-0.6,0.2-2.4,0.6-3,0c-0.4-0.4-0.2-1.3,0.1-2l0.3-0.9l-1,0.2
					c0,0-4.8,1-8-1.2c-1.6-1.1-2.6-2.9-2.8-5.4l-0.1-1.2l-0.8,0.9c-0.3,0.4-1.3,1.2-2.1,1.1c-0.4-0.1-0.8-0.4-1.1-1l-0.4-0.8
					l-0.5,0.7c0,0-1.7,2.1-3.3,2.1c-0.6,0-1.1-0.2-1.6-0.8l-0.7-0.8l-0.2,1.1c-0.1,0.3-1.8,7.8-8.9,6.9l-0.8-0.1l0.2,0.8
					c0,0,0.5,1.8-0.4,3.1c-0.5,0.8-1.5,1.2-2.8,1.3l-0.6,0.1l0.2,0.6c0,0,0.2,1-0.3,1.6c-0.4,0.5-1.1,0.6-2.2,0.6L991,205l1.4,1.1
					c0.4,0.3,0.7,0.7,0.7,0.9l0,0c0,0-0.1,0.1-0.5,0.2l0.2,1.1c0.7-0.2,1.2-0.5,1.3-1c0.1-0.4,0-0.7-0.2-1c0.8-0.1,1.4-0.4,1.9-0.9
					c0.5-0.6,0.6-1.4,0.6-1.9c1.4-0.2,2.4-0.8,3.1-1.7c0.8-1.1,0.8-2.4,0.7-3.3c6,0.3,8.4-4.8,9.1-6.9c0.5,0.4,1.1,0.5,1.7,0.5
					c1.5,0,2.9-1.2,3.7-2c0.4,0.6,1,0.9,1.6,1c0.9,0.1,1.7-0.3,2.3-0.8c0.5,2.2,1.5,3.9,3.1,5.1c2.7,1.9,6.3,1.8,8,1.6
					c-0.2,1-0.1,1.7,0.4,2.2c0.7,0.8,2,0.7,3,0.6c-0.4,1.1-0.9,3-0.2,4.6c0.5,1.1,1.5,1.9,2.9,2.3c-1.1,0.9-2.9,2.8-3.1,5.2
					c-0.2,2.2,0.9,4.4,3.3,6.6c-0.8,0.4-2,1.1-2.4,2.2c-0.3,0.9-0.1,1.8,0.5,2.9c-1.3,0.2-3.5,0.8-4.7,2.5c-0.8,1.1-1.1,2.4-0.9,3.9
					c-0.9-0.2-2.2-0.3-3.3,0.4c-0.7,0.5-1.2,1.2-1.3,2.2c-0.7-0.1-1.7-0.2-2.7,0.3c-0.8,0.4-1.4,1.2-1.7,2.3L1020.2,235.3
					L1020.2,235.3z"/>
			</g>
			<g>
				<path d="M1023.3,245.8c0.3-1.8,0.9-2.8,1.9-3.1c1.5-0.5,3.6,1.1,4.3,1.8l1.2,1.2l-0.3-1.7c-0.5-2.7-0.2-4.6,0.8-5.3
					c1.3-0.9,3.6-0.1,4.4,0.3l1.1,0.6l-0.4-1.2c-0.8-2.5-0.6-4.5,0.6-6c2.3-2.9,7.6-2.8,7.6-2.8h0.9l-0.4-0.8
					c-1.1-2.1-1.3-3.7-0.7-4.9c1-1.7,3.6-1.9,3.7-1.9l1.4-0.1l-1.1-0.9c-3.5-2.8-5.2-5.8-5.2-8.8c0.1-4.8,4.8-8.2,4.8-8.3l1-0.7
					l-1.1-0.3c-2.4-0.6-4-1.7-4.5-3.3c-1.2-3.3,2.2-7.9,2.2-7.9l1.1-1.4l-1.7,0.6c-2.8,0.9-4.8,1-5.8,0.2s-0.8-2.1-0.8-2.1l0.1-0.8
					l-0.8,0.2c-3.7,1.1-6.9,0.9-9.6-0.7c-4.7-2.7-6.4-8.4-6.4-8.5l-0.3-0.9l-0.7,0.7c-1,1.1-2,1.5-2.8,1.3c-1.3-0.3-2.1-2.1-2.1-2.1
					l-0.4-1l-0.6,1c-0.9,1.5-1.9,2.4-3.2,2.5c-2.3,0.3-4.6-2.1-4.6-2.1l-0.7-0.8l-0.2,1.1c-0.6,3.1-2,5.2-4.2,6.4
					c-5.5,2.9-14-0.6-14.1-0.6l-1.1-0.5l0.4,1.1c0.6,1.9,0.5,3.5-0.4,4.7c-2.1,3-7.9,3.1-8,3.1h-1l0.6,0.8c0.9,1.3,1.1,2.4,0.7,3.2
					c-0.7,1.5-3.4,2-4.4,2.1l-1.3,0.1l1,0.9c0.7,0.6,1.1,1.2,1,1.5c-0.2,0.6-1.4,0.9-2,1l0.1,1.1c0.3,0,2.5-0.4,2.9-1.8
					c0.2-0.6,0-1.2-0.5-1.9c1.3-0.3,3.4-0.9,4.2-2.5c0.5-1,0.4-2.2-0.3-3.5c1.9-0.2,6-0.8,7.9-3.5c0.9-1.3,1.2-2.8,0.8-4.6
					c2.5,0.9,9.2,2.8,14,0.2c2.3-1.2,3.8-3.3,4.6-6.2c1,0.8,2.8,2,4.8,1.8c1.3-0.2,2.5-0.9,3.5-2.2c0.5,0.7,1.3,1.7,2.5,1.9
					c1,0.2,2.1-0.2,3.1-1.1c0.7,1.8,2.5,6,6.6,8.3c2.8,1.6,6.1,1.9,9.8,1c0.1,0.7,0.4,1.6,1.2,2.3c1.2,0.9,3,1.1,5.4,0.5
					c-1,1.7-2.5,4.9-1.5,7.7c0.6,1.7,2,2.9,4.3,3.7c-1.5,1.3-4.3,4.4-4.4,8.4c-0.1,3.1,1.5,6.1,4.7,8.9c-1.1,0.3-2.6,0.9-3.3,2.3
					c-0.8,1.3-0.7,3.1,0.3,5.1c-1.8,0.1-5.6,0.6-7.7,3.2c-1.2,1.5-1.5,3.5-1,5.9c-1.2-0.4-3.1-0.8-4.5,0.2c-1.2,0.9-1.6,2.5-1.4,5
					c-1.1-0.8-2.8-1.6-4.3-1.2c-1.3,0.4-2.2,1.8-2.6,4L1023.3,245.8L1023.3,245.8z"/>
			</g>
			<g>
				<path d="M1069,277.8l1-0.4c-3.4-9.1-3.5-16-0.1-20.5c4.6-6.3,14.3-5.9,14.4-5.9l1.2,0.1l-0.7-0.9c-3-3.9-4-7.1-2.9-9.7
					c2.2-5.1,11.9-6.1,12-6.1l1.8-0.2l-1.6-0.8c-8.7-4.5-13.5-10-14.5-16.6c-1.7-11.8,9.9-22.9,10-23l0.8-0.8l-1.1-0.2
					c-5.2-0.9-8.7-3-10.3-6.4c-3.4-7.2,2.6-17.6,2.6-17.8l0.5-0.9l-1,0.1c-4.2,0.4-7-0.4-8.4-2.4c-2.3-3.3,0.3-8.8,0.3-8.8l0.8-1.8
					l-1.6,1.1c-14.6,9.6-27,13.3-35.8,10.5c-7.4-2.3-9.8-8.4-9.8-8.4l-1,0.4c0.1,0.3,2.6,6.6,10.5,9.1c9,2.9,20.8-0.4,35.3-9.7
					c-0.7,2.1-1.4,5.7,0.4,8.3c1.5,2.1,4.3,3.1,8.4,2.9c-1.4,2.8-5.3,11.4-2.2,17.9c1.6,3.5,5,5.8,10,6.8
					c-2.6,2.7-11.1,12.5-9.6,23.2c0.9,6.5,5.5,12.1,13.6,16.6c-3,0.5-9.3,2.2-11.2,6.6c-1.2,2.8-0.4,6.1,2.4,9.9
					c-2.8,0.1-10.2,0.8-14.2,6.3C1065.5,261.1,1065.4,268.3,1069,277.8L1069,277.8z"/>
			</g>
			<g>
				<path d="M1092.1,481.1c5.2-20.1,50.8-21.3,51.3-21.3l0.2-0.1c0.4-0.2,43-20.7,70.5-13.9l0.3-1.1c-27.1-6.7-68.7,12.8-71.1,13.9
					c-3.2,0.1-46.9,1.6-52.2,22.1L1092.1,481.1L1092.1,481.1z"/>
			</g>
			<g>
				<path d="M1213.7,445.4l1-0.3c-9.6-33,25.4-109.8,25.7-110.6l-1-0.5C1239.1,334.8,1204,412,1213.7,445.4L1213.7,445.4z"/>
			</g>
			<g>
				<path d="M1202.5,314.5l1-0.4c-8.1-18.3,13.4-46.7,13.6-46.9l-0.9-0.7C1215.3,267.7,1194.1,295.6,1202.5,314.5L1202.5,314.5z"/>
			</g>
			<g>
				<path d="M1193.5,309.8l0.3-1l-0.2,0.5l0.2-0.5c-0.1,0-1.7-0.6-2.7-3.3c-1.6-4.3-2.2-15.4,12.3-42.1l-1-0.5
					c-14,25.8-14.4,37.7-12.3,43.1C1191.4,309.1,1193.4,309.8,1193.5,309.8L1193.5,309.8z"/>
			</g>
			<g>
				<path d="M1125.9,242.8l1-0.5c-3.4-7.3,1.4-20.1,1.4-20.2l-1-0.4C1127.1,222.2,1122.3,235,1125.9,242.8L1125.9,242.8z"/>
			</g>
			<g>
				<path d="M1116,240l1.1-0.1c-1.3-9.7,9.6-21.3,9.8-21.5l-0.8-0.8C1125.6,218.1,1114.6,229.8,1116,240L1116,240z"/>
			</g>
			<g>
				<path d="M1137.7,246.1l0.6-0.9c-7.7-5.1-6.6-16.1-6.6-16.2l-1.1-0.1C1130.6,229.4,1129.4,240.6,1137.7,246.1L1137.7,246.1z"/>
			</g>
			<g>
				<path d="M1155.9,177c0.7,0,1.3,0,2-0.1l-0.1-1.1c-7,0.4-13.1-1.5-17.9-5.8c-11.6-10.2-12.8-30.5-12.9-30.7v-0.8l-0.7,0.3
					c-18.4,7.9-33.8-15-34-15.2l-0.9,0.6c0.2,0.2,15.7,23.3,34.6,15.9c0.4,3.8,2.6,21.3,13.2,30.7C1143.8,175,1149.4,177,1155.9,177
					L1155.9,177z"/>
			</g>
		</g>
	</g>
	<g>
		<defs>
			<rect id="SVGID_3_" y="0.1" width="1240" height="774.4"/>
		</defs>
		<clipPath id="SVGID_4_">
			<use xlink:href="#SVGID_3_"  style="overflow:visible;"/>
		</clipPath>
		<g class="st1">
			<line id="Spider-Descender" class="st2" x1="904" y1="187.1" x2="904" y2="441.3"/>
		</g>
	</g>
</g>
<image style="overflow:visible;" width="1125" height="1130" xlink:href="../../../../../Documents/Design/Old Portfolio Stuffs/spider-draft.png"  transform="matrix(0.3747 0 0 0.3747 713.2937 283.714)">
</image>
</svg>
